<svg width="1920" height="1080" viewBox="0 0 1920 1080" fill="none" xmlns="http://www.w3.org/2000/svg">
<rect width="1920" height="1080" fill="black"/>
<path d="M101.141 503.75V572H92.2344V503.75H101.141ZM123.078 503.75V511.156H70.3438V503.75H123.078ZM140.562 500V572H131.891V500H140.562ZM138.5 544.719L134.891 544.578C134.922 541.109 135.438 537.906 136.438 534.969C137.438 532 138.844 529.422 140.656 527.234C142.469 525.047 144.625 523.359 147.125 522.172C149.656 520.953 152.453 520.344 155.516 520.344C158.016 520.344 160.266 520.688 162.266 521.375C164.266 522.031 165.969 523.094 167.375 524.562C168.812 526.031 169.906 527.938 170.656 530.281C171.406 532.594 171.781 535.422 171.781 538.766V572H163.062V538.672C163.062 536.016 162.672 533.891 161.891 532.297C161.109 530.672 159.969 529.5 158.469 528.781C156.969 528.031 155.125 527.656 152.938 527.656C150.781 527.656 148.812 528.109 147.031 529.016C145.281 529.922 143.766 531.172 142.484 532.766C141.234 534.359 140.25 536.188 139.531 538.25C138.844 540.281 138.5 542.438 138.5 544.719ZM205.812 572.938C202.281 572.938 199.078 572.344 196.203 571.156C193.359 569.938 190.906 568.234 188.844 566.047C186.812 563.859 185.25 561.266 184.156 558.266C183.062 555.266 182.516 551.984 182.516 548.422V546.453C182.516 542.328 183.125 538.656 184.344 535.438C185.562 532.188 187.219 529.438 189.312 527.188C191.406 524.938 193.781 523.234 196.438 522.078C199.094 520.922 201.844 520.344 204.688 520.344C208.312 520.344 211.438 520.969 214.062 522.219C216.719 523.469 218.891 525.219 220.578 527.469C222.266 529.688 223.516 532.312 224.328 535.344C225.141 538.344 225.547 541.625 225.547 545.188V549.078H187.672V542H216.875V541.344C216.75 539.094 216.281 536.906 215.469 534.781C214.688 532.656 213.438 530.906 211.719 529.531C210 528.156 207.656 527.469 204.688 527.469C202.719 527.469 200.906 527.891 199.25 528.734C197.594 529.547 196.172 530.766 194.984 532.391C193.797 534.016 192.875 536 192.219 538.344C191.562 540.688 191.234 543.391 191.234 546.453V548.422C191.234 550.828 191.562 553.094 192.219 555.219C192.906 557.312 193.891 559.156 195.172 560.75C196.484 562.344 198.062 563.594 199.906 564.5C201.781 565.406 203.906 565.859 206.281 565.859C209.344 565.859 211.938 565.234 214.062 563.984C216.188 562.734 218.047 561.062 219.641 558.969L224.891 563.141C223.797 564.797 222.406 566.375 220.719 567.875C219.031 569.375 216.953 570.594 214.484 571.531C212.047 572.469 209.156 572.938 205.812 572.938ZM268.906 521.281V572H260.188V521.281H268.906ZM259.531 507.828C259.531 506.422 259.953 505.234 260.797 504.266C261.672 503.297 262.953 502.812 264.641 502.812C266.297 502.812 267.562 503.297 268.438 504.266C269.344 505.234 269.797 506.422 269.797 507.828C269.797 509.172 269.344 510.328 268.438 511.297C267.562 512.234 266.297 512.703 264.641 512.703C262.953 512.703 261.672 512.234 260.797 511.297C259.953 510.328 259.531 509.172 259.531 507.828ZM291.453 531.359V572H282.734V521.281H290.984L291.453 531.359ZM289.672 544.719L285.641 544.578C285.672 541.109 286.125 537.906 287 534.969C287.875 532 289.172 529.422 290.891 527.234C292.609 525.047 294.75 523.359 297.312 522.172C299.875 520.953 302.844 520.344 306.219 520.344C308.594 520.344 310.781 520.688 312.781 521.375C314.781 522.031 316.516 523.078 317.984 524.516C319.453 525.953 320.594 527.797 321.406 530.047C322.219 532.297 322.625 535.016 322.625 538.203V572H313.953V538.625C313.953 535.969 313.5 533.844 312.594 532.25C311.719 530.656 310.469 529.5 308.844 528.781C307.219 528.031 305.312 527.656 303.125 527.656C300.562 527.656 298.422 528.109 296.703 529.016C294.984 529.922 293.609 531.172 292.578 532.766C291.547 534.359 290.797 536.188 290.328 538.25C289.891 540.281 289.672 542.438 289.672 544.719ZM322.531 539.938L316.719 541.719C316.75 538.938 317.203 536.266 318.078 533.703C318.984 531.141 320.281 528.859 321.969 526.859C323.688 524.859 325.797 523.281 328.297 522.125C330.797 520.938 333.656 520.344 336.875 520.344C339.594 520.344 342 520.703 344.094 521.422C346.219 522.141 348 523.25 349.438 524.75C350.906 526.219 352.016 528.109 352.766 530.422C353.516 532.734 353.891 535.484 353.891 538.672V572H345.172V538.578C345.172 535.734 344.719 533.531 343.812 531.969C342.938 530.375 341.688 529.266 340.062 528.641C338.469 527.984 336.562 527.656 334.344 527.656C332.438 527.656 330.75 527.984 329.281 528.641C327.812 529.297 326.578 530.203 325.578 531.359C324.578 532.484 323.812 533.781 323.281 535.25C322.781 536.719 322.531 538.281 322.531 539.938ZM396.922 563.328V537.219C396.922 535.219 396.516 533.484 395.703 532.016C394.922 530.516 393.734 529.359 392.141 528.547C390.547 527.734 388.578 527.328 386.234 527.328C384.047 527.328 382.125 527.703 380.469 528.453C378.844 529.203 377.562 530.188 376.625 531.406C375.719 532.625 375.266 533.938 375.266 535.344H366.594C366.594 533.531 367.062 531.734 368 529.953C368.938 528.172 370.281 526.562 372.031 525.125C373.812 523.656 375.938 522.5 378.406 521.656C380.906 520.781 383.688 520.344 386.75 520.344C390.438 520.344 393.688 520.969 396.5 522.219C399.344 523.469 401.562 525.359 403.156 527.891C404.781 530.391 405.594 533.531 405.594 537.312V560.938C405.594 562.625 405.734 564.422 406.016 566.328C406.328 568.234 406.781 569.875 407.375 571.25V572H398.328C397.891 571 397.547 569.672 397.297 568.016C397.047 566.328 396.922 564.766 396.922 563.328ZM398.422 541.25L398.516 547.344H389.75C387.281 547.344 385.078 547.547 383.141 547.953C381.203 548.328 379.578 548.906 378.266 549.688C376.953 550.469 375.953 551.453 375.266 552.641C374.578 553.797 374.234 555.156 374.234 556.719C374.234 558.312 374.594 559.766 375.312 561.078C376.031 562.391 377.109 563.438 378.547 564.219C380.016 564.969 381.812 565.344 383.938 565.344C386.594 565.344 388.938 564.781 390.969 563.656C393 562.531 394.609 561.156 395.797 559.531C397.016 557.906 397.672 556.328 397.766 554.797L401.469 558.969C401.25 560.281 400.656 561.734 399.688 563.328C398.719 564.922 397.422 566.453 395.797 567.922C394.203 569.359 392.297 570.562 390.078 571.531C387.891 572.469 385.422 572.938 382.672 572.938C379.234 572.938 376.219 572.266 373.625 570.922C371.062 569.578 369.062 567.781 367.625 565.531C366.219 563.25 365.516 560.703 365.516 557.891C365.516 555.172 366.047 552.781 367.109 550.719C368.172 548.625 369.703 546.891 371.703 545.516C373.703 544.109 376.109 543.047 378.922 542.328C381.734 541.609 384.875 541.25 388.344 541.25H398.422ZM452.094 521.281H459.969V570.922C459.969 575.391 459.062 579.203 457.25 582.359C455.438 585.516 452.906 587.906 449.656 589.531C446.438 591.188 442.719 592.016 438.5 592.016C436.75 592.016 434.688 591.734 432.312 591.172C429.969 590.641 427.656 589.719 425.375 588.406C423.125 587.125 421.234 585.391 419.703 583.203L424.25 578.047C426.375 580.609 428.594 582.391 430.906 583.391C433.25 584.391 435.562 584.891 437.844 584.891C440.594 584.891 442.969 584.375 444.969 583.344C446.969 582.312 448.516 580.781 449.609 578.75C450.734 576.75 451.297 574.281 451.297 571.344V532.438L452.094 521.281ZM417.172 547.203V546.219C417.172 542.344 417.625 538.828 418.531 535.672C419.469 532.484 420.797 529.75 422.516 527.469C424.266 525.188 426.375 523.438 428.844 522.219C431.312 520.969 434.094 520.344 437.188 520.344C440.375 520.344 443.156 520.906 445.531 522.031C447.938 523.125 449.969 524.734 451.625 526.859C453.312 528.953 454.641 531.484 455.609 534.453C456.578 537.422 457.25 540.781 457.625 544.531V548.844C457.281 552.562 456.609 555.906 455.609 558.875C454.641 561.844 453.312 564.375 451.625 566.469C449.969 568.562 447.938 570.172 445.531 571.297C443.125 572.391 440.312 572.938 437.094 572.938C434.062 572.938 431.312 572.297 428.844 571.016C426.406 569.734 424.312 567.938 422.562 565.625C420.812 563.312 419.469 560.594 418.531 557.469C417.625 554.312 417.172 550.891 417.172 547.203ZM425.844 546.219V547.203C425.844 549.734 426.094 552.109 426.594 554.328C427.125 556.547 427.922 558.5 428.984 560.188C430.078 561.875 431.469 563.203 433.156 564.172C434.844 565.109 436.859 565.578 439.203 565.578C442.078 565.578 444.453 564.969 446.328 563.75C448.203 562.531 449.688 560.922 450.781 558.922C451.906 556.922 452.781 554.75 453.406 552.406V541.109C453.062 539.391 452.531 537.734 451.812 536.141C451.125 534.516 450.219 533.078 449.094 531.828C448 530.547 446.641 529.531 445.016 528.781C443.391 528.031 441.484 527.656 439.297 527.656C436.922 527.656 434.875 528.156 433.156 529.156C431.469 530.125 430.078 531.469 428.984 533.188C427.922 534.875 427.125 536.844 426.594 539.094C426.094 541.312 425.844 543.688 425.844 546.219ZM494.188 572.938C490.656 572.938 487.453 572.344 484.578 571.156C481.734 569.938 479.281 568.234 477.219 566.047C475.188 563.859 473.625 561.266 472.531 558.266C471.438 555.266 470.891 551.984 470.891 548.422V546.453C470.891 542.328 471.5 538.656 472.719 535.438C473.938 532.188 475.594 529.438 477.688 527.188C479.781 524.938 482.156 523.234 484.812 522.078C487.469 520.922 490.219 520.344 493.062 520.344C496.688 520.344 499.812 520.969 502.438 522.219C505.094 523.469 507.266 525.219 508.953 527.469C510.641 529.688 511.891 532.312 512.703 535.344C513.516 538.344 513.922 541.625 513.922 545.188V549.078H476.047V542H505.25V541.344C505.125 539.094 504.656 536.906 503.844 534.781C503.062 532.656 501.812 530.906 500.094 529.531C498.375 528.156 496.031 527.469 493.062 527.469C491.094 527.469 489.281 527.891 487.625 528.734C485.969 529.547 484.547 530.766 483.359 532.391C482.172 534.016 481.25 536 480.594 538.344C479.938 540.688 479.609 543.391 479.609 546.453V548.422C479.609 550.828 479.938 553.094 480.594 555.219C481.281 557.312 482.266 559.156 483.547 560.75C484.859 562.344 486.438 563.594 488.281 564.5C490.156 565.406 492.281 565.859 494.656 565.859C497.719 565.859 500.312 565.234 502.438 563.984C504.562 562.734 506.422 561.062 508.016 558.969L513.266 563.141C512.172 564.797 510.781 566.375 509.094 567.875C507.406 569.375 505.328 570.594 502.859 571.531C500.422 572.469 497.531 572.938 494.188 572.938ZM556.484 531.359V572H547.766V521.281H556.016L556.484 531.359ZM554.703 544.719L550.672 544.578C550.703 541.109 551.156 537.906 552.031 534.969C552.906 532 554.203 529.422 555.922 527.234C557.641 525.047 559.781 523.359 562.344 522.172C564.906 520.953 567.875 520.344 571.25 520.344C573.625 520.344 575.812 520.688 577.812 521.375C579.812 522.031 581.547 523.078 583.016 524.516C584.484 525.953 585.625 527.797 586.438 530.047C587.25 532.297 587.656 535.016 587.656 538.203V572H578.984V538.625C578.984 535.969 578.531 533.844 577.625 532.25C576.75 530.656 575.5 529.5 573.875 528.781C572.25 528.031 570.344 527.656 568.156 527.656C565.594 527.656 563.453 528.109 561.734 529.016C560.016 529.922 558.641 531.172 557.609 532.766C556.578 534.359 555.828 536.188 555.359 538.25C554.922 540.281 554.703 542.438 554.703 544.719ZM587.562 539.938L581.75 541.719C581.781 538.938 582.234 536.266 583.109 533.703C584.016 531.141 585.312 528.859 587 526.859C588.719 524.859 590.828 523.281 593.328 522.125C595.828 520.938 598.688 520.344 601.906 520.344C604.625 520.344 607.031 520.703 609.125 521.422C611.25 522.141 613.031 523.25 614.469 524.75C615.938 526.219 617.047 528.109 617.797 530.422C618.547 532.734 618.922 535.484 618.922 538.672V572H610.203V538.578C610.203 535.734 609.75 533.531 608.844 531.969C607.969 530.375 606.719 529.266 605.094 528.641C603.5 527.984 601.594 527.656 599.375 527.656C597.469 527.656 595.781 527.984 594.312 528.641C592.844 529.297 591.609 530.203 590.609 531.359C589.609 532.484 588.844 533.781 588.312 535.25C587.812 536.719 587.562 538.281 587.562 539.938ZM661.953 563.328V537.219C661.953 535.219 661.547 533.484 660.734 532.016C659.953 530.516 658.766 529.359 657.172 528.547C655.578 527.734 653.609 527.328 651.266 527.328C649.078 527.328 647.156 527.703 645.5 528.453C643.875 529.203 642.594 530.188 641.656 531.406C640.75 532.625 640.297 533.938 640.297 535.344H631.625C631.625 533.531 632.094 531.734 633.031 529.953C633.969 528.172 635.312 526.562 637.062 525.125C638.844 523.656 640.969 522.5 643.438 521.656C645.938 520.781 648.719 520.344 651.781 520.344C655.469 520.344 658.719 520.969 661.531 522.219C664.375 523.469 666.594 525.359 668.188 527.891C669.812 530.391 670.625 533.531 670.625 537.312V560.938C670.625 562.625 670.766 564.422 671.047 566.328C671.359 568.234 671.812 569.875 672.406 571.25V572H663.359C662.922 571 662.578 569.672 662.328 568.016C662.078 566.328 661.953 564.766 661.953 563.328ZM663.453 541.25L663.547 547.344H654.781C652.312 547.344 650.109 547.547 648.172 547.953C646.234 548.328 644.609 548.906 643.297 549.688C641.984 550.469 640.984 551.453 640.297 552.641C639.609 553.797 639.266 555.156 639.266 556.719C639.266 558.312 639.625 559.766 640.344 561.078C641.062 562.391 642.141 563.438 643.578 564.219C645.047 564.969 646.844 565.344 648.969 565.344C651.625 565.344 653.969 564.781 656 563.656C658.031 562.531 659.641 561.156 660.828 559.531C662.047 557.906 662.703 556.328 662.797 554.797L666.5 558.969C666.281 560.281 665.688 561.734 664.719 563.328C663.75 564.922 662.453 566.453 660.828 567.922C659.234 569.359 657.328 570.562 655.109 571.531C652.922 572.469 650.453 572.938 647.703 572.938C644.266 572.938 641.25 572.266 638.656 570.922C636.094 569.578 634.094 567.781 632.656 565.531C631.25 563.25 630.547 560.703 630.547 557.891C630.547 555.172 631.078 552.781 632.141 550.719C633.203 548.625 634.734 546.891 636.734 545.516C638.734 544.109 641.141 543.047 643.953 542.328C646.766 541.609 649.906 541.25 653.375 541.25H663.453ZM697.766 566.75L711.875 521.281H721.156L700.812 579.828C700.344 581.078 699.719 582.422 698.938 583.859C698.188 585.328 697.219 586.719 696.031 588.031C694.844 589.344 693.406 590.406 691.719 591.219C690.062 592.062 688.078 592.484 685.766 592.484C685.078 592.484 684.203 592.391 683.141 592.203C682.078 592.016 681.328 591.859 680.891 591.734L680.844 584.703C681.094 584.734 681.484 584.766 682.016 584.797C682.578 584.859 682.969 584.891 683.188 584.891C685.156 584.891 686.828 584.625 688.203 584.094C689.578 583.594 690.734 582.734 691.672 581.516C692.641 580.328 693.469 578.688 694.156 576.594L697.766 566.75ZM687.406 521.281L700.578 560.656L702.828 569.797L696.594 572.984L677.938 521.281H687.406ZM774.031 521.281V527.938H746.609V521.281H774.031ZM755.891 508.953H764.562V559.438C764.562 561.156 764.828 562.453 765.359 563.328C765.891 564.203 766.578 564.781 767.422 565.062C768.266 565.344 769.172 565.484 770.141 565.484C770.859 565.484 771.609 565.422 772.391 565.297C773.203 565.141 773.812 565.016 774.219 564.922L774.266 572C773.578 572.219 772.672 572.422 771.547 572.609C770.453 572.828 769.125 572.938 767.562 572.938C765.438 572.938 763.484 572.516 761.703 571.672C759.922 570.828 758.5 569.422 757.438 567.453C756.406 565.453 755.891 562.766 755.891 559.391V508.953ZM814.109 563.328V537.219C814.109 535.219 813.703 533.484 812.891 532.016C812.109 530.516 810.922 529.359 809.328 528.547C807.734 527.734 805.766 527.328 803.422 527.328C801.234 527.328 799.312 527.703 797.656 528.453C796.031 529.203 794.75 530.188 793.812 531.406C792.906 532.625 792.453 533.938 792.453 535.344H783.781C783.781 533.531 784.25 531.734 785.188 529.953C786.125 528.172 787.469 526.562 789.219 525.125C791 523.656 793.125 522.5 795.594 521.656C798.094 520.781 800.875 520.344 803.938 520.344C807.625 520.344 810.875 520.969 813.688 522.219C816.531 523.469 818.75 525.359 820.344 527.891C821.969 530.391 822.781 533.531 822.781 537.312V560.938C822.781 562.625 822.922 564.422 823.203 566.328C823.516 568.234 823.969 569.875 824.562 571.25V572H815.516C815.078 571 814.734 569.672 814.484 568.016C814.234 566.328 814.109 564.766 814.109 563.328ZM815.609 541.25L815.703 547.344H806.938C804.469 547.344 802.266 547.547 800.328 547.953C798.391 548.328 796.766 548.906 795.453 549.688C794.141 550.469 793.141 551.453 792.453 552.641C791.766 553.797 791.422 555.156 791.422 556.719C791.422 558.312 791.781 559.766 792.5 561.078C793.219 562.391 794.297 563.438 795.734 564.219C797.203 564.969 799 565.344 801.125 565.344C803.781 565.344 806.125 564.781 808.156 563.656C810.188 562.531 811.797 561.156 812.984 559.531C814.203 557.906 814.859 556.328 814.953 554.797L818.656 558.969C818.438 560.281 817.844 561.734 816.875 563.328C815.906 564.922 814.609 566.453 812.984 567.922C811.391 569.359 809.484 570.562 807.266 571.531C805.078 572.469 802.609 572.938 799.859 572.938C796.422 572.938 793.406 572.266 790.812 570.922C788.25 569.578 786.25 567.781 784.812 565.531C783.406 563.25 782.703 560.703 782.703 557.891C782.703 555.172 783.234 552.781 784.297 550.719C785.359 548.625 786.891 546.891 788.891 545.516C790.891 544.109 793.297 543.047 796.109 542.328C798.922 541.609 802.062 541.25 805.531 541.25H815.609ZM845.141 500V572H836.422V500H845.141ZM876.125 521.281L854 544.953L841.625 557.797L840.922 548.562L849.781 537.969L865.531 521.281H876.125ZM868.203 572L850.109 547.812L854.609 540.078L878.422 572H868.203ZM905.188 572.938C901.656 572.938 898.453 572.344 895.578 571.156C892.734 569.938 890.281 568.234 888.219 566.047C886.188 563.859 884.625 561.266 883.531 558.266C882.438 555.266 881.891 551.984 881.891 548.422V546.453C881.891 542.328 882.5 538.656 883.719 535.438C884.938 532.188 886.594 529.438 888.688 527.188C890.781 524.938 893.156 523.234 895.812 522.078C898.469 520.922 901.219 520.344 904.062 520.344C907.688 520.344 910.812 520.969 913.438 522.219C916.094 523.469 918.266 525.219 919.953 527.469C921.641 529.688 922.891 532.312 923.703 535.344C924.516 538.344 924.922 541.625 924.922 545.188V549.078H887.047V542H916.25V541.344C916.125 539.094 915.656 536.906 914.844 534.781C914.062 532.656 912.812 530.906 911.094 529.531C909.375 528.156 907.031 527.469 904.062 527.469C902.094 527.469 900.281 527.891 898.625 528.734C896.969 529.547 895.547 530.766 894.359 532.391C893.172 534.016 892.25 536 891.594 538.344C890.938 540.688 890.609 543.391 890.609 546.453V548.422C890.609 550.828 890.938 553.094 891.594 555.219C892.281 557.312 893.266 559.156 894.547 560.75C895.859 562.344 897.438 563.594 899.281 564.5C901.156 565.406 903.281 565.859 905.656 565.859C908.719 565.859 911.312 565.234 913.438 563.984C915.562 562.734 917.422 561.062 919.016 558.969L924.266 563.141C923.172 564.797 921.781 566.375 920.094 567.875C918.406 569.375 916.328 570.594 913.859 571.531C911.422 572.469 908.531 572.938 905.188 572.938ZM988.766 563.328V537.219C988.766 535.219 988.359 533.484 987.547 532.016C986.766 530.516 985.578 529.359 983.984 528.547C982.391 527.734 980.422 527.328 978.078 527.328C975.891 527.328 973.969 527.703 972.312 528.453C970.688 529.203 969.406 530.188 968.469 531.406C967.562 532.625 967.109 533.938 967.109 535.344H958.438C958.438 533.531 958.906 531.734 959.844 529.953C960.781 528.172 962.125 526.562 963.875 525.125C965.656 523.656 967.781 522.5 970.25 521.656C972.75 520.781 975.531 520.344 978.594 520.344C982.281 520.344 985.531 520.969 988.344 522.219C991.188 523.469 993.406 525.359 995 527.891C996.625 530.391 997.438 533.531 997.438 537.312V560.938C997.438 562.625 997.578 564.422 997.859 566.328C998.172 568.234 998.625 569.875 999.219 571.25V572H990.172C989.734 571 989.391 569.672 989.141 568.016C988.891 566.328 988.766 564.766 988.766 563.328ZM990.266 541.25L990.359 547.344H981.594C979.125 547.344 976.922 547.547 974.984 547.953C973.047 548.328 971.422 548.906 970.109 549.688C968.797 550.469 967.797 551.453 967.109 552.641C966.422 553.797 966.078 555.156 966.078 556.719C966.078 558.312 966.438 559.766 967.156 561.078C967.875 562.391 968.953 563.438 970.391 564.219C971.859 564.969 973.656 565.344 975.781 565.344C978.438 565.344 980.781 564.781 982.812 563.656C984.844 562.531 986.453 561.156 987.641 559.531C988.859 557.906 989.516 556.328 989.609 554.797L993.312 558.969C993.094 560.281 992.5 561.734 991.531 563.328C990.562 564.922 989.266 566.453 987.641 567.922C986.047 569.359 984.141 570.562 981.922 571.531C979.734 572.469 977.266 572.938 974.516 572.938C971.078 572.938 968.062 572.266 965.469 570.922C962.906 569.578 960.906 567.781 959.469 565.531C958.062 563.25 957.359 560.703 957.359 557.891C957.359 555.172 957.891 552.781 958.953 550.719C960.016 548.625 961.547 546.891 963.547 545.516C965.547 544.109 967.953 543.047 970.766 542.328C973.578 541.609 976.719 541.25 980.188 541.25H990.266ZM1044.31 500V572H1035.59V500H1044.31ZM1067.66 521.281V572H1058.94V521.281H1067.66ZM1058.28 507.828C1058.28 506.422 1058.7 505.234 1059.55 504.266C1060.42 503.297 1061.7 502.812 1063.39 502.812C1065.05 502.812 1066.31 503.297 1067.19 504.266C1068.09 505.234 1068.55 506.422 1068.55 507.828C1068.55 509.172 1068.09 510.328 1067.19 511.297C1066.31 512.234 1065.05 512.703 1063.39 512.703C1061.7 512.703 1060.42 512.234 1059.55 511.297C1058.7 510.328 1058.28 509.172 1058.28 507.828ZM1102.81 521.281V527.938H1075.39V521.281H1102.81ZM1084.67 508.953H1093.34V559.438C1093.34 561.156 1093.61 562.453 1094.14 563.328C1094.67 564.203 1095.36 564.781 1096.2 565.062C1097.05 565.344 1097.95 565.484 1098.92 565.484C1099.64 565.484 1100.39 565.422 1101.17 565.297C1101.98 565.141 1102.59 565.016 1103 564.922L1103.05 572C1102.36 572.219 1101.45 572.422 1100.33 572.609C1099.23 572.828 1097.91 572.938 1096.34 572.938C1094.22 572.938 1092.27 572.516 1090.48 571.672C1088.7 570.828 1087.28 569.422 1086.22 567.453C1085.19 565.453 1084.67 562.766 1084.67 559.391V508.953ZM1134.22 521.281V527.938H1106.8V521.281H1134.22ZM1116.08 508.953H1124.75V559.438C1124.75 561.156 1125.02 562.453 1125.55 563.328C1126.08 564.203 1126.77 564.781 1127.61 565.062C1128.45 565.344 1129.36 565.484 1130.33 565.484C1131.05 565.484 1131.8 565.422 1132.58 565.297C1133.39 565.141 1134 565.016 1134.41 564.922L1134.45 572C1133.77 572.219 1132.86 572.422 1131.73 572.609C1130.64 572.828 1129.31 572.938 1127.75 572.938C1125.62 572.938 1123.67 572.516 1121.89 571.672C1120.11 570.828 1118.69 569.422 1117.62 567.453C1116.59 565.453 1116.08 562.766 1116.08 559.391V508.953ZM1153.81 500V572H1145.09V500H1153.81ZM1188.78 572.938C1185.25 572.938 1182.05 572.344 1179.17 571.156C1176.33 569.938 1173.88 568.234 1171.81 566.047C1169.78 563.859 1168.22 561.266 1167.12 558.266C1166.03 555.266 1165.48 551.984 1165.48 548.422V546.453C1165.48 542.328 1166.09 538.656 1167.31 535.438C1168.53 532.188 1170.19 529.438 1172.28 527.188C1174.38 524.938 1176.75 523.234 1179.41 522.078C1182.06 520.922 1184.81 520.344 1187.66 520.344C1191.28 520.344 1194.41 520.969 1197.03 522.219C1199.69 523.469 1201.86 525.219 1203.55 527.469C1205.23 529.688 1206.48 532.312 1207.3 535.344C1208.11 538.344 1208.52 541.625 1208.52 545.188V549.078H1170.64V542H1199.84V541.344C1199.72 539.094 1199.25 536.906 1198.44 534.781C1197.66 532.656 1196.41 530.906 1194.69 529.531C1192.97 528.156 1190.62 527.469 1187.66 527.469C1185.69 527.469 1183.88 527.891 1182.22 528.734C1180.56 529.547 1179.14 530.766 1177.95 532.391C1176.77 534.016 1175.84 536 1175.19 538.344C1174.53 540.688 1174.2 543.391 1174.2 546.453V548.422C1174.2 550.828 1174.53 553.094 1175.19 555.219C1175.88 557.312 1176.86 559.156 1178.14 560.75C1179.45 562.344 1181.03 563.594 1182.88 564.5C1184.75 565.406 1186.88 565.859 1189.25 565.859C1192.31 565.859 1194.91 565.234 1197.03 563.984C1199.16 562.734 1201.02 561.062 1202.61 558.969L1207.86 563.141C1206.77 564.797 1205.38 566.375 1203.69 567.875C1202 569.375 1199.92 570.594 1197.45 571.531C1195.02 572.469 1192.12 572.938 1188.78 572.938ZM1242.41 500H1251.12V562.156L1250.38 572H1242.41V500ZM1285.39 546.219V547.203C1285.39 550.891 1284.95 554.312 1284.08 557.469C1283.2 560.594 1281.92 563.312 1280.23 565.625C1278.55 567.938 1276.48 569.734 1274.05 571.016C1271.61 572.297 1268.81 572.938 1265.66 572.938C1262.44 572.938 1259.61 572.391 1257.17 571.297C1254.77 570.172 1252.73 568.562 1251.08 566.469C1249.42 564.375 1248.09 561.844 1247.09 558.875C1246.12 555.906 1245.45 552.562 1245.08 548.844V544.531C1245.45 540.781 1246.12 537.422 1247.09 534.453C1248.09 531.484 1249.42 528.953 1251.08 526.859C1252.73 524.734 1254.77 523.125 1257.17 522.031C1259.58 520.906 1262.38 520.344 1265.56 520.344C1268.75 520.344 1271.58 520.969 1274.05 522.219C1276.52 523.438 1278.58 525.188 1280.23 527.469C1281.92 529.75 1283.2 532.484 1284.08 535.672C1284.95 538.828 1285.39 542.344 1285.39 546.219ZM1276.67 547.203V546.219C1276.67 543.688 1276.44 541.312 1275.97 539.094C1275.5 536.844 1274.75 534.875 1273.72 533.188C1272.69 531.469 1271.33 530.125 1269.64 529.156C1267.95 528.156 1265.88 527.656 1263.41 527.656C1261.22 527.656 1259.31 528.031 1257.69 528.781C1256.09 529.531 1254.73 530.547 1253.61 531.828C1252.48 533.078 1251.56 534.516 1250.84 536.141C1250.16 537.734 1249.64 539.391 1249.3 541.109V552.406C1249.8 554.594 1250.61 556.703 1251.73 558.734C1252.89 560.734 1254.42 562.375 1256.33 563.656C1258.27 564.938 1260.66 565.578 1263.5 565.578C1265.84 565.578 1267.84 565.109 1269.5 564.172C1271.19 563.203 1272.55 561.875 1273.58 560.188C1274.64 558.5 1275.42 556.547 1275.92 554.328C1276.42 552.109 1276.67 549.734 1276.67 547.203ZM1305.78 521.281V572H1297.06V521.281H1305.78ZM1296.41 507.828C1296.41 506.422 1296.83 505.234 1297.67 504.266C1298.55 503.297 1299.83 502.812 1301.52 502.812C1303.17 502.812 1304.44 503.297 1305.31 504.266C1306.22 505.234 1306.67 506.422 1306.67 507.828C1306.67 509.172 1306.22 510.328 1305.31 511.297C1304.44 512.234 1303.17 512.703 1301.52 512.703C1299.83 512.703 1298.55 512.234 1297.67 511.297C1296.83 510.328 1296.41 509.172 1296.41 507.828ZM1340.94 521.281V527.938H1313.52V521.281H1340.94ZM1322.8 508.953H1331.47V559.438C1331.47 561.156 1331.73 562.453 1332.27 563.328C1332.8 564.203 1333.48 564.781 1334.33 565.062C1335.17 565.344 1336.08 565.484 1337.05 565.484C1337.77 565.484 1338.52 565.422 1339.3 565.297C1340.11 565.141 1340.72 565.016 1341.12 564.922L1341.17 572C1340.48 572.219 1339.58 572.422 1338.45 572.609C1337.36 572.828 1336.03 572.938 1334.47 572.938C1332.34 572.938 1330.39 572.516 1328.61 571.672C1326.83 570.828 1325.41 569.422 1324.34 567.453C1323.31 565.453 1322.8 562.766 1322.8 559.391V508.953ZM1396.16 521.281V527.938H1368.73V521.281H1396.16ZM1378.02 508.953H1386.69V559.438C1386.69 561.156 1386.95 562.453 1387.48 563.328C1388.02 564.203 1388.7 564.781 1389.55 565.062C1390.39 565.344 1391.3 565.484 1392.27 565.484C1392.98 565.484 1393.73 565.422 1394.52 565.297C1395.33 565.141 1395.94 565.016 1396.34 564.922L1396.39 572C1395.7 572.219 1394.8 572.422 1393.67 572.609C1392.58 572.828 1391.25 572.938 1389.69 572.938C1387.56 572.938 1385.61 572.516 1383.83 571.672C1382.05 570.828 1380.62 569.422 1379.56 567.453C1378.53 565.453 1378.02 562.766 1378.02 559.391V508.953ZM1403.09 547.203V546.125C1403.09 542.469 1403.62 539.078 1404.69 535.953C1405.75 532.797 1407.28 530.062 1409.28 527.75C1411.28 525.406 1413.7 523.594 1416.55 522.312C1419.39 521 1422.58 520.344 1426.11 520.344C1429.67 520.344 1432.88 521 1435.72 522.312C1438.59 523.594 1441.03 525.406 1443.03 527.75C1445.06 530.062 1446.61 532.797 1447.67 535.953C1448.73 539.078 1449.27 542.469 1449.27 546.125V547.203C1449.27 550.859 1448.73 554.25 1447.67 557.375C1446.61 560.5 1445.06 563.234 1443.03 565.578C1441.03 567.891 1438.61 569.703 1435.77 571.016C1432.95 572.297 1429.77 572.938 1426.2 572.938C1422.64 572.938 1419.44 572.297 1416.59 571.016C1413.75 569.703 1411.31 567.891 1409.28 565.578C1407.28 563.234 1405.75 560.5 1404.69 557.375C1403.62 554.25 1403.09 550.859 1403.09 547.203ZM1411.77 546.125V547.203C1411.77 549.734 1412.06 552.125 1412.66 554.375C1413.25 556.594 1414.14 558.562 1415.33 560.281C1416.55 562 1418.06 563.359 1419.88 564.359C1421.69 565.328 1423.8 565.812 1426.2 565.812C1428.58 565.812 1430.66 565.328 1432.44 564.359C1434.25 563.359 1435.75 562 1436.94 560.281C1438.12 558.562 1439.02 556.594 1439.61 554.375C1440.23 552.125 1440.55 549.734 1440.55 547.203V546.125C1440.55 543.625 1440.23 541.266 1439.61 539.047C1439.02 536.797 1438.11 534.812 1436.89 533.094C1435.7 531.344 1434.2 529.969 1432.39 528.969C1430.61 527.969 1428.52 527.469 1426.11 527.469C1423.73 527.469 1421.64 527.969 1419.83 528.969C1418.05 529.969 1416.55 531.344 1415.33 533.094C1414.14 534.812 1413.25 536.797 1412.66 539.047C1412.06 541.266 1411.77 543.625 1411.77 546.125ZM1516.81 521.281H1524.69V570.922C1524.69 575.391 1523.78 579.203 1521.97 582.359C1520.16 585.516 1517.62 587.906 1514.38 589.531C1511.16 591.188 1507.44 592.016 1503.22 592.016C1501.47 592.016 1499.41 591.734 1497.03 591.172C1494.69 590.641 1492.38 589.719 1490.09 588.406C1487.84 587.125 1485.95 585.391 1484.42 583.203L1488.97 578.047C1491.09 580.609 1493.31 582.391 1495.62 583.391C1497.97 584.391 1500.28 584.891 1502.56 584.891C1505.31 584.891 1507.69 584.375 1509.69 583.344C1511.69 582.312 1513.23 580.781 1514.33 578.75C1515.45 576.75 1516.02 574.281 1516.02 571.344V532.438L1516.81 521.281ZM1481.89 547.203V546.219C1481.89 542.344 1482.34 538.828 1483.25 535.672C1484.19 532.484 1485.52 529.75 1487.23 527.469C1488.98 525.188 1491.09 523.438 1493.56 522.219C1496.03 520.969 1498.81 520.344 1501.91 520.344C1505.09 520.344 1507.88 520.906 1510.25 522.031C1512.66 523.125 1514.69 524.734 1516.34 526.859C1518.03 528.953 1519.36 531.484 1520.33 534.453C1521.3 537.422 1521.97 540.781 1522.34 544.531V548.844C1522 552.562 1521.33 555.906 1520.33 558.875C1519.36 561.844 1518.03 564.375 1516.34 566.469C1514.69 568.562 1512.66 570.172 1510.25 571.297C1507.84 572.391 1505.03 572.938 1501.81 572.938C1498.78 572.938 1496.03 572.297 1493.56 571.016C1491.12 569.734 1489.03 567.938 1487.28 565.625C1485.53 563.312 1484.19 560.594 1483.25 557.469C1482.34 554.312 1481.89 550.891 1481.89 547.203ZM1490.56 546.219V547.203C1490.56 549.734 1490.81 552.109 1491.31 554.328C1491.84 556.547 1492.64 558.5 1493.7 560.188C1494.8 561.875 1496.19 563.203 1497.88 564.172C1499.56 565.109 1501.58 565.578 1503.92 565.578C1506.8 565.578 1509.17 564.969 1511.05 563.75C1512.92 562.531 1514.41 560.922 1515.5 558.922C1516.62 556.922 1517.5 554.75 1518.12 552.406V541.109C1517.78 539.391 1517.25 537.734 1516.53 536.141C1515.84 534.516 1514.94 533.078 1513.81 531.828C1512.72 530.547 1511.36 529.531 1509.73 528.781C1508.11 528.031 1506.2 527.656 1504.02 527.656C1501.64 527.656 1499.59 528.156 1497.88 529.156C1496.19 530.125 1494.8 531.469 1493.7 533.188C1492.64 534.875 1491.84 536.844 1491.31 539.094C1490.81 541.312 1490.56 543.688 1490.56 546.219ZM1558.91 572.938C1555.38 572.938 1552.17 572.344 1549.3 571.156C1546.45 569.938 1544 568.234 1541.94 566.047C1539.91 563.859 1538.34 561.266 1537.25 558.266C1536.16 555.266 1535.61 551.984 1535.61 548.422V546.453C1535.61 542.328 1536.22 538.656 1537.44 535.438C1538.66 532.188 1540.31 529.438 1542.41 527.188C1544.5 524.938 1546.88 523.234 1549.53 522.078C1552.19 520.922 1554.94 520.344 1557.78 520.344C1561.41 520.344 1564.53 520.969 1567.16 522.219C1569.81 523.469 1571.98 525.219 1573.67 527.469C1575.36 529.688 1576.61 532.312 1577.42 535.344C1578.23 538.344 1578.64 541.625 1578.64 545.188V549.078H1540.77V542H1569.97V541.344C1569.84 539.094 1569.38 536.906 1568.56 534.781C1567.78 532.656 1566.53 530.906 1564.81 529.531C1563.09 528.156 1560.75 527.469 1557.78 527.469C1555.81 527.469 1554 527.891 1552.34 528.734C1550.69 529.547 1549.27 530.766 1548.08 532.391C1546.89 534.016 1545.97 536 1545.31 538.344C1544.66 540.688 1544.33 543.391 1544.33 546.453V548.422C1544.33 550.828 1544.66 553.094 1545.31 555.219C1546 557.312 1546.98 559.156 1548.27 560.75C1549.58 562.344 1551.16 563.594 1553 564.5C1554.88 565.406 1557 565.859 1559.38 565.859C1562.44 565.859 1565.03 565.234 1567.16 563.984C1569.28 562.734 1571.14 561.062 1572.73 558.969L1577.98 563.141C1576.89 564.797 1575.5 566.375 1573.81 567.875C1572.12 569.375 1570.05 570.594 1567.58 571.531C1565.14 572.469 1562.25 572.938 1558.91 572.938ZM1597.44 532.109V572H1588.77V521.281H1596.97L1597.44 532.109ZM1595.38 544.719L1591.77 544.578C1591.8 541.109 1592.31 537.906 1593.31 534.969C1594.31 532 1595.72 529.422 1597.53 527.234C1599.34 525.047 1601.5 523.359 1604 522.172C1606.53 520.953 1609.33 520.344 1612.39 520.344C1614.89 520.344 1617.14 520.688 1619.14 521.375C1621.14 522.031 1622.84 523.094 1624.25 524.562C1625.69 526.031 1626.78 527.938 1627.53 530.281C1628.28 532.594 1628.66 535.422 1628.66 538.766V572H1619.94V538.672C1619.94 536.016 1619.55 533.891 1618.77 532.297C1617.98 530.672 1616.84 529.5 1615.34 528.781C1613.84 528.031 1612 527.656 1609.81 527.656C1607.66 527.656 1605.69 528.109 1603.91 529.016C1602.16 529.922 1600.64 531.172 1599.36 532.766C1598.11 534.359 1597.12 536.188 1596.41 538.25C1595.72 540.281 1595.38 542.438 1595.38 544.719ZM1662.88 572.938C1659.34 572.938 1656.14 572.344 1653.27 571.156C1650.42 569.938 1647.97 568.234 1645.91 566.047C1643.88 563.859 1642.31 561.266 1641.22 558.266C1640.12 555.266 1639.58 551.984 1639.58 548.422V546.453C1639.58 542.328 1640.19 538.656 1641.41 535.438C1642.62 532.188 1644.28 529.438 1646.38 527.188C1648.47 524.938 1650.84 523.234 1653.5 522.078C1656.16 520.922 1658.91 520.344 1661.75 520.344C1665.38 520.344 1668.5 520.969 1671.12 522.219C1673.78 523.469 1675.95 525.219 1677.64 527.469C1679.33 529.688 1680.58 532.312 1681.39 535.344C1682.2 538.344 1682.61 541.625 1682.61 545.188V549.078H1644.73V542H1673.94V541.344C1673.81 539.094 1673.34 536.906 1672.53 534.781C1671.75 532.656 1670.5 530.906 1668.78 529.531C1667.06 528.156 1664.72 527.469 1661.75 527.469C1659.78 527.469 1657.97 527.891 1656.31 528.734C1654.66 529.547 1653.23 530.766 1652.05 532.391C1650.86 534.016 1649.94 536 1649.28 538.344C1648.62 540.688 1648.3 543.391 1648.3 546.453V548.422C1648.3 550.828 1648.62 553.094 1649.28 555.219C1649.97 557.312 1650.95 559.156 1652.23 560.75C1653.55 562.344 1655.12 563.594 1656.97 564.5C1658.84 565.406 1660.97 565.859 1663.34 565.859C1666.41 565.859 1669 565.234 1671.12 563.984C1673.25 562.734 1675.11 561.062 1676.7 558.969L1681.95 563.141C1680.86 564.797 1679.47 566.375 1677.78 567.875C1676.09 569.375 1674.02 570.594 1671.55 571.531C1669.11 572.469 1666.22 572.938 1662.88 572.938ZM1701.41 529.25V572H1692.73V521.281H1701.17L1701.41 529.25ZM1717.25 521L1717.2 529.062C1716.48 528.906 1715.8 528.812 1715.14 528.781C1714.52 528.719 1713.8 528.688 1712.98 528.688C1710.98 528.688 1709.22 529 1707.69 529.625C1706.16 530.25 1704.86 531.125 1703.8 532.25C1702.73 533.375 1701.89 534.719 1701.27 536.281C1700.67 537.812 1700.28 539.5 1700.09 541.344L1697.66 542.75C1697.66 539.688 1697.95 536.812 1698.55 534.125C1699.17 531.438 1700.12 529.062 1701.41 527C1702.69 524.906 1704.31 523.281 1706.28 522.125C1708.28 520.938 1710.66 520.344 1713.41 520.344C1714.03 520.344 1714.75 520.422 1715.56 520.578C1716.38 520.703 1716.94 520.844 1717.25 521ZM1753.3 563.328V537.219C1753.3 535.219 1752.89 533.484 1752.08 532.016C1751.3 530.516 1750.11 529.359 1748.52 528.547C1746.92 527.734 1744.95 527.328 1742.61 527.328C1740.42 527.328 1738.5 527.703 1736.84 528.453C1735.22 529.203 1733.94 530.188 1733 531.406C1732.09 532.625 1731.64 533.938 1731.64 535.344H1722.97C1722.97 533.531 1723.44 531.734 1724.38 529.953C1725.31 528.172 1726.66 526.562 1728.41 525.125C1730.19 523.656 1732.31 522.5 1734.78 521.656C1737.28 520.781 1740.06 520.344 1743.12 520.344C1746.81 520.344 1750.06 520.969 1752.88 522.219C1755.72 523.469 1757.94 525.359 1759.53 527.891C1761.16 530.391 1761.97 533.531 1761.97 537.312V560.938C1761.97 562.625 1762.11 564.422 1762.39 566.328C1762.7 568.234 1763.16 569.875 1763.75 571.25V572H1754.7C1754.27 571 1753.92 569.672 1753.67 568.016C1753.42 566.328 1753.3 564.766 1753.3 563.328ZM1754.8 541.25L1754.89 547.344H1746.12C1743.66 547.344 1741.45 547.547 1739.52 547.953C1737.58 548.328 1735.95 548.906 1734.64 549.688C1733.33 550.469 1732.33 551.453 1731.64 552.641C1730.95 553.797 1730.61 555.156 1730.61 556.719C1730.61 558.312 1730.97 559.766 1731.69 561.078C1732.41 562.391 1733.48 563.438 1734.92 564.219C1736.39 564.969 1738.19 565.344 1740.31 565.344C1742.97 565.344 1745.31 564.781 1747.34 563.656C1749.38 562.531 1750.98 561.156 1752.17 559.531C1753.39 557.906 1754.05 556.328 1754.14 554.797L1757.84 558.969C1757.62 560.281 1757.03 561.734 1756.06 563.328C1755.09 564.922 1753.8 566.453 1752.17 567.922C1750.58 569.359 1748.67 570.562 1746.45 571.531C1744.27 572.469 1741.8 572.938 1739.05 572.938C1735.61 572.938 1732.59 572.266 1730 570.922C1727.44 569.578 1725.44 567.781 1724 565.531C1722.59 563.25 1721.89 560.703 1721.89 557.891C1721.89 555.172 1722.42 552.781 1723.48 550.719C1724.55 548.625 1726.08 546.891 1728.08 545.516C1730.08 544.109 1732.48 543.047 1735.3 542.328C1738.11 541.609 1741.25 541.25 1744.72 541.25H1754.8ZM1796.84 521.281V527.938H1769.42V521.281H1796.84ZM1778.7 508.953H1787.38V559.438C1787.38 561.156 1787.64 562.453 1788.17 563.328C1788.7 564.203 1789.39 564.781 1790.23 565.062C1791.08 565.344 1791.98 565.484 1792.95 565.484C1793.67 565.484 1794.42 565.422 1795.2 565.297C1796.02 565.141 1796.62 565.016 1797.03 564.922L1797.08 572C1796.39 572.219 1795.48 572.422 1794.36 572.609C1793.27 572.828 1791.94 572.938 1790.38 572.938C1788.25 572.938 1786.3 572.516 1784.52 571.672C1782.73 570.828 1781.31 569.422 1780.25 567.453C1779.22 565.453 1778.7 562.766 1778.7 559.391V508.953ZM1828.06 572.938C1824.53 572.938 1821.33 572.344 1818.45 571.156C1815.61 569.938 1813.16 568.234 1811.09 566.047C1809.06 563.859 1807.5 561.266 1806.41 558.266C1805.31 555.266 1804.77 551.984 1804.77 548.422V546.453C1804.77 542.328 1805.38 538.656 1806.59 535.438C1807.81 532.188 1809.47 529.438 1811.56 527.188C1813.66 524.938 1816.03 523.234 1818.69 522.078C1821.34 520.922 1824.09 520.344 1826.94 520.344C1830.56 520.344 1833.69 520.969 1836.31 522.219C1838.97 523.469 1841.14 525.219 1842.83 527.469C1844.52 529.688 1845.77 532.312 1846.58 535.344C1847.39 538.344 1847.8 541.625 1847.8 545.188V549.078H1809.92V542H1839.12V541.344C1839 539.094 1838.53 536.906 1837.72 534.781C1836.94 532.656 1835.69 530.906 1833.97 529.531C1832.25 528.156 1829.91 527.469 1826.94 527.469C1824.97 527.469 1823.16 527.891 1821.5 528.734C1819.84 529.547 1818.42 530.766 1817.23 532.391C1816.05 534.016 1815.12 536 1814.47 538.344C1813.81 540.688 1813.48 543.391 1813.48 546.453V548.422C1813.48 550.828 1813.81 553.094 1814.47 555.219C1815.16 557.312 1816.14 559.156 1817.42 560.75C1818.73 562.344 1820.31 563.594 1822.16 564.5C1824.03 565.406 1826.16 565.859 1828.53 565.859C1831.59 565.859 1834.19 565.234 1836.31 563.984C1838.44 562.734 1840.3 561.062 1841.89 558.969L1847.14 563.141C1846.05 564.797 1844.66 566.375 1842.97 567.875C1841.28 569.375 1839.2 570.594 1836.73 571.531C1834.3 572.469 1831.41 572.938 1828.06 572.938Z" fill="white"/>
</svg>
