<svg width="1920" height="1080" viewBox="0 0 1920 1080" fill="none" xmlns="http://www.w3.org/2000/svg">
<rect width="1920" height="1080" fill="black"/>
<path d="M108.617 510.125V567H101.195V510.125H108.617ZM126.898 510.125V516.297H82.9531V510.125H126.898ZM141.469 507V567H134.242V507H141.469ZM139.75 544.266L136.742 544.148C136.768 541.258 137.198 538.589 138.031 536.141C138.865 533.667 140.036 531.518 141.547 529.695C143.057 527.872 144.854 526.466 146.938 525.477C149.047 524.461 151.378 523.953 153.93 523.953C156.013 523.953 157.888 524.24 159.555 524.812C161.221 525.359 162.641 526.245 163.812 527.469C165.01 528.693 165.922 530.281 166.547 532.234C167.172 534.161 167.484 536.518 167.484 539.305V567H160.219V539.227C160.219 537.013 159.893 535.242 159.242 533.914C158.591 532.56 157.641 531.583 156.391 530.984C155.141 530.359 153.604 530.047 151.781 530.047C149.984 530.047 148.344 530.424 146.859 531.18C145.401 531.935 144.138 532.977 143.07 534.305C142.029 535.633 141.208 537.156 140.609 538.875C140.036 540.568 139.75 542.365 139.75 544.266ZM195.844 567.781C192.901 567.781 190.232 567.286 187.836 566.297C185.466 565.281 183.422 563.862 181.703 562.039C180.01 560.216 178.708 558.055 177.797 555.555C176.885 553.055 176.43 550.32 176.43 547.352V545.711C176.43 542.273 176.938 539.214 177.953 536.531C178.969 533.823 180.349 531.531 182.094 529.656C183.839 527.781 185.818 526.362 188.031 525.398C190.245 524.435 192.536 523.953 194.906 523.953C197.927 523.953 200.531 524.474 202.719 525.516C204.932 526.557 206.742 528.016 208.148 529.891C209.555 531.74 210.596 533.927 211.273 536.453C211.951 538.953 212.289 541.688 212.289 544.656V547.898H180.727V542H205.062V541.453C204.958 539.578 204.568 537.755 203.891 535.984C203.24 534.214 202.198 532.755 200.766 531.609C199.333 530.464 197.38 529.891 194.906 529.891C193.266 529.891 191.755 530.242 190.375 530.945C188.995 531.622 187.81 532.638 186.82 533.992C185.831 535.346 185.062 537 184.516 538.953C183.969 540.906 183.695 543.159 183.695 545.711V547.352C183.695 549.357 183.969 551.245 184.516 553.016C185.089 554.76 185.909 556.297 186.977 557.625C188.07 558.953 189.385 559.995 190.922 560.75C192.484 561.505 194.255 561.883 196.234 561.883C198.786 561.883 200.948 561.362 202.719 560.32C204.49 559.279 206.039 557.885 207.367 556.141L211.742 559.617C210.831 560.997 209.672 562.312 208.266 563.562C206.859 564.812 205.128 565.828 203.07 566.609C201.039 567.391 198.63 567.781 195.844 567.781ZM248.422 524.734V567H241.156V524.734H248.422ZM240.609 513.523C240.609 512.352 240.961 511.362 241.664 510.555C242.393 509.747 243.461 509.344 244.867 509.344C246.247 509.344 247.302 509.747 248.031 510.555C248.786 511.362 249.164 512.352 249.164 513.523C249.164 514.643 248.786 515.607 248.031 516.414C247.302 517.195 246.247 517.586 244.867 517.586C243.461 517.586 242.393 517.195 241.664 516.414C240.961 515.607 240.609 514.643 240.609 513.523ZM267.211 533.133V567H259.945V524.734H266.82L267.211 533.133ZM265.727 544.266L262.367 544.148C262.393 541.258 262.771 538.589 263.5 536.141C264.229 533.667 265.31 531.518 266.742 529.695C268.174 527.872 269.958 526.466 272.094 525.477C274.229 524.461 276.703 523.953 279.516 523.953C281.495 523.953 283.318 524.24 284.984 524.812C286.651 525.359 288.096 526.232 289.32 527.43C290.544 528.628 291.495 530.164 292.172 532.039C292.849 533.914 293.188 536.18 293.188 538.836V567H285.961V539.188C285.961 536.974 285.583 535.203 284.828 533.875C284.099 532.547 283.057 531.583 281.703 530.984C280.349 530.359 278.76 530.047 276.938 530.047C274.802 530.047 273.018 530.424 271.586 531.18C270.154 531.935 269.008 532.977 268.148 534.305C267.289 535.633 266.664 537.156 266.273 538.875C265.909 540.568 265.727 542.365 265.727 544.266ZM293.109 540.281L288.266 541.766C288.292 539.448 288.669 537.221 289.398 535.086C290.154 532.951 291.234 531.049 292.641 529.383C294.073 527.716 295.831 526.401 297.914 525.438C299.997 524.448 302.38 523.953 305.062 523.953C307.328 523.953 309.333 524.253 311.078 524.852C312.849 525.451 314.333 526.375 315.531 527.625C316.755 528.849 317.68 530.424 318.305 532.352C318.93 534.279 319.242 536.57 319.242 539.227V567H311.977V539.148C311.977 536.779 311.599 534.943 310.844 533.641C310.115 532.312 309.073 531.388 307.719 530.867C306.391 530.32 304.802 530.047 302.953 530.047C301.365 530.047 299.958 530.32 298.734 530.867C297.51 531.414 296.482 532.169 295.648 533.133C294.815 534.07 294.177 535.151 293.734 536.375C293.318 537.599 293.109 538.901 293.109 540.281ZM355.102 559.773V538.016C355.102 536.349 354.763 534.904 354.086 533.68C353.435 532.43 352.445 531.466 351.117 530.789C349.789 530.112 348.148 529.773 346.195 529.773C344.372 529.773 342.771 530.086 341.391 530.711C340.036 531.336 338.969 532.156 338.188 533.172C337.432 534.188 337.055 535.281 337.055 536.453H329.828C329.828 534.943 330.219 533.445 331 531.961C331.781 530.477 332.901 529.135 334.359 527.938C335.844 526.714 337.615 525.75 339.672 525.047C341.755 524.318 344.073 523.953 346.625 523.953C349.698 523.953 352.406 524.474 354.75 525.516C357.12 526.557 358.969 528.133 360.297 530.242C361.651 532.326 362.328 534.943 362.328 538.094V557.781C362.328 559.188 362.445 560.685 362.68 562.273C362.94 563.862 363.318 565.229 363.812 566.375V567H356.273C355.909 566.167 355.622 565.06 355.414 563.68C355.206 562.273 355.102 560.971 355.102 559.773ZM356.352 541.375L356.43 546.453H349.125C347.068 546.453 345.232 546.622 343.617 546.961C342.003 547.273 340.648 547.755 339.555 548.406C338.461 549.057 337.628 549.878 337.055 550.867C336.482 551.831 336.195 552.964 336.195 554.266C336.195 555.594 336.495 556.805 337.094 557.898C337.693 558.992 338.591 559.865 339.789 560.516C341.013 561.141 342.51 561.453 344.281 561.453C346.495 561.453 348.448 560.984 350.141 560.047C351.833 559.109 353.174 557.964 354.164 556.609C355.18 555.255 355.727 553.94 355.805 552.664L358.891 556.141C358.708 557.234 358.214 558.445 357.406 559.773C356.599 561.102 355.518 562.378 354.164 563.602C352.836 564.799 351.247 565.802 349.398 566.609C347.576 567.391 345.518 567.781 343.227 567.781C340.362 567.781 337.849 567.221 335.688 566.102C333.552 564.982 331.885 563.484 330.688 561.609C329.516 559.708 328.93 557.586 328.93 555.242C328.93 552.977 329.372 550.984 330.258 549.266C331.143 547.521 332.419 546.076 334.086 544.93C335.753 543.758 337.758 542.872 340.102 542.273C342.445 541.674 345.062 541.375 347.953 541.375H356.352ZM401.078 524.734H407.641V566.102C407.641 569.826 406.885 573.003 405.375 575.633C403.865 578.263 401.755 580.255 399.047 581.609C396.365 582.99 393.266 583.68 389.75 583.68C388.292 583.68 386.573 583.445 384.594 582.977C382.641 582.534 380.714 581.766 378.812 580.672C376.938 579.604 375.362 578.159 374.086 576.336L377.875 572.039C379.646 574.174 381.495 575.659 383.422 576.492C385.375 577.326 387.302 577.742 389.203 577.742C391.495 577.742 393.474 577.312 395.141 576.453C396.807 575.594 398.096 574.318 399.008 572.625C399.945 570.958 400.414 568.901 400.414 566.453V534.031L401.078 524.734ZM371.977 546.336V545.516C371.977 542.286 372.354 539.357 373.109 536.727C373.891 534.07 374.997 531.792 376.43 529.891C377.888 527.99 379.646 526.531 381.703 525.516C383.76 524.474 386.078 523.953 388.656 523.953C391.312 523.953 393.63 524.422 395.609 525.359C397.615 526.271 399.307 527.612 400.688 529.383C402.094 531.128 403.201 533.237 404.008 535.711C404.815 538.185 405.375 540.984 405.688 544.109V547.703C405.401 550.802 404.841 553.589 404.008 556.062C403.201 558.536 402.094 560.646 400.688 562.391C399.307 564.135 397.615 565.477 395.609 566.414C393.604 567.326 391.26 567.781 388.578 567.781C386.052 567.781 383.76 567.247 381.703 566.18C379.672 565.112 377.927 563.615 376.469 561.688C375.01 559.76 373.891 557.495 373.109 554.891C372.354 552.26 371.977 549.409 371.977 546.336ZM379.203 545.516V546.336C379.203 548.445 379.411 550.424 379.828 552.273C380.271 554.122 380.935 555.75 381.82 557.156C382.732 558.562 383.891 559.669 385.297 560.477C386.703 561.258 388.383 561.648 390.336 561.648C392.732 561.648 394.711 561.141 396.273 560.125C397.836 559.109 399.073 557.768 399.984 556.102C400.922 554.435 401.651 552.625 402.172 550.672V541.258C401.885 539.826 401.443 538.445 400.844 537.117C400.271 535.763 399.516 534.565 398.578 533.523C397.667 532.456 396.534 531.609 395.18 530.984C393.826 530.359 392.237 530.047 390.414 530.047C388.435 530.047 386.729 530.464 385.297 531.297C383.891 532.104 382.732 533.224 381.82 534.656C380.935 536.062 380.271 537.703 379.828 539.578C379.411 541.427 379.203 543.406 379.203 545.516ZM436.156 567.781C433.214 567.781 430.544 567.286 428.148 566.297C425.779 565.281 423.734 563.862 422.016 562.039C420.323 560.216 419.021 558.055 418.109 555.555C417.198 553.055 416.742 550.32 416.742 547.352V545.711C416.742 542.273 417.25 539.214 418.266 536.531C419.281 533.823 420.661 531.531 422.406 529.656C424.151 527.781 426.13 526.362 428.344 525.398C430.557 524.435 432.849 523.953 435.219 523.953C438.24 523.953 440.844 524.474 443.031 525.516C445.245 526.557 447.055 528.016 448.461 529.891C449.867 531.74 450.909 533.927 451.586 536.453C452.263 538.953 452.602 541.688 452.602 544.656V547.898H421.039V542H445.375V541.453C445.271 539.578 444.88 537.755 444.203 535.984C443.552 534.214 442.51 532.755 441.078 531.609C439.646 530.464 437.693 529.891 435.219 529.891C433.578 529.891 432.068 530.242 430.688 530.945C429.307 531.622 428.122 532.638 427.133 533.992C426.143 535.346 425.375 537 424.828 538.953C424.281 540.906 424.008 543.159 424.008 545.711V547.352C424.008 549.357 424.281 551.245 424.828 553.016C425.401 554.76 426.221 556.297 427.289 557.625C428.383 558.953 429.698 559.995 431.234 560.75C432.797 561.505 434.568 561.883 436.547 561.883C439.099 561.883 441.26 561.362 443.031 560.32C444.802 559.279 446.352 557.885 447.68 556.141L452.055 559.617C451.143 560.997 449.984 562.312 448.578 563.562C447.172 564.812 445.44 565.828 443.383 566.609C441.352 567.391 438.943 567.781 436.156 567.781ZM488.07 533.133V567H480.805V524.734H487.68L488.07 533.133ZM486.586 544.266L483.227 544.148C483.253 541.258 483.63 538.589 484.359 536.141C485.089 533.667 486.169 531.518 487.602 529.695C489.034 527.872 490.818 526.466 492.953 525.477C495.089 524.461 497.562 523.953 500.375 523.953C502.354 523.953 504.177 524.24 505.844 524.812C507.51 525.359 508.956 526.232 510.18 527.43C511.404 528.628 512.354 530.164 513.031 532.039C513.708 533.914 514.047 536.18 514.047 538.836V567H506.82V539.188C506.82 536.974 506.443 535.203 505.688 533.875C504.958 532.547 503.917 531.583 502.562 530.984C501.208 530.359 499.62 530.047 497.797 530.047C495.661 530.047 493.878 530.424 492.445 531.18C491.013 531.935 489.867 532.977 489.008 534.305C488.148 535.633 487.523 537.156 487.133 538.875C486.768 540.568 486.586 542.365 486.586 544.266ZM513.969 540.281L509.125 541.766C509.151 539.448 509.529 537.221 510.258 535.086C511.013 532.951 512.094 531.049 513.5 529.383C514.932 527.716 516.69 526.401 518.773 525.438C520.857 524.448 523.24 523.953 525.922 523.953C528.188 523.953 530.193 524.253 531.938 524.852C533.708 525.451 535.193 526.375 536.391 527.625C537.615 528.849 538.539 530.424 539.164 532.352C539.789 534.279 540.102 536.57 540.102 539.227V567H532.836V539.148C532.836 536.779 532.458 534.943 531.703 533.641C530.974 532.312 529.932 531.388 528.578 530.867C527.25 530.32 525.661 530.047 523.812 530.047C522.224 530.047 520.818 530.32 519.594 530.867C518.37 531.414 517.341 532.169 516.508 533.133C515.674 534.07 515.036 535.151 514.594 536.375C514.177 537.599 513.969 538.901 513.969 540.281ZM575.961 559.773V538.016C575.961 536.349 575.622 534.904 574.945 533.68C574.294 532.43 573.305 531.466 571.977 530.789C570.648 530.112 569.008 529.773 567.055 529.773C565.232 529.773 563.63 530.086 562.25 530.711C560.896 531.336 559.828 532.156 559.047 533.172C558.292 534.188 557.914 535.281 557.914 536.453H550.688C550.688 534.943 551.078 533.445 551.859 531.961C552.641 530.477 553.76 529.135 555.219 527.938C556.703 526.714 558.474 525.75 560.531 525.047C562.615 524.318 564.932 523.953 567.484 523.953C570.557 523.953 573.266 524.474 575.609 525.516C577.979 526.557 579.828 528.133 581.156 530.242C582.51 532.326 583.188 534.943 583.188 538.094V557.781C583.188 559.188 583.305 560.685 583.539 562.273C583.799 563.862 584.177 565.229 584.672 566.375V567H577.133C576.768 566.167 576.482 565.06 576.273 563.68C576.065 562.273 575.961 560.971 575.961 559.773ZM577.211 541.375L577.289 546.453H569.984C567.927 546.453 566.091 546.622 564.477 546.961C562.862 547.273 561.508 547.755 560.414 548.406C559.32 549.057 558.487 549.878 557.914 550.867C557.341 551.831 557.055 552.964 557.055 554.266C557.055 555.594 557.354 556.805 557.953 557.898C558.552 558.992 559.451 559.865 560.648 560.516C561.872 561.141 563.37 561.453 565.141 561.453C567.354 561.453 569.307 560.984 571 560.047C572.693 559.109 574.034 557.964 575.023 556.609C576.039 555.255 576.586 553.94 576.664 552.664L579.75 556.141C579.568 557.234 579.073 558.445 578.266 559.773C577.458 561.102 576.378 562.378 575.023 563.602C573.695 564.799 572.107 565.802 570.258 566.609C568.435 567.391 566.378 567.781 564.086 567.781C561.221 567.781 558.708 567.221 556.547 566.102C554.411 564.982 552.745 563.484 551.547 561.609C550.375 559.708 549.789 557.586 549.789 555.242C549.789 552.977 550.232 550.984 551.117 549.266C552.003 547.521 553.279 546.076 554.945 544.93C556.612 543.758 558.617 542.872 560.961 542.273C563.305 541.674 565.922 541.375 568.812 541.375H577.211ZM605.805 562.625L617.562 524.734H625.297L608.344 573.523C607.953 574.565 607.432 575.685 606.781 576.883C606.156 578.107 605.349 579.266 604.359 580.359C603.37 581.453 602.172 582.339 600.766 583.016C599.385 583.719 597.732 584.07 595.805 584.07C595.232 584.07 594.503 583.992 593.617 583.836C592.732 583.68 592.107 583.549 591.742 583.445L591.703 577.586C591.911 577.612 592.237 577.638 592.68 577.664C593.148 577.716 593.474 577.742 593.656 577.742C595.297 577.742 596.69 577.521 597.836 577.078C598.982 576.661 599.945 575.945 600.727 574.93C601.534 573.94 602.224 572.573 602.797 570.828L605.805 562.625ZM597.172 524.734L608.148 557.547L610.023 565.164L604.828 567.82L589.281 524.734H597.172ZM669.359 524.734V530.281H646.508V524.734H669.359ZM654.242 514.461H661.469V556.531C661.469 557.964 661.69 559.044 662.133 559.773C662.576 560.503 663.148 560.984 663.852 561.219C664.555 561.453 665.31 561.57 666.117 561.57C666.716 561.57 667.341 561.518 667.992 561.414C668.669 561.284 669.177 561.18 669.516 561.102L669.555 567C668.982 567.182 668.227 567.352 667.289 567.508C666.378 567.69 665.271 567.781 663.969 567.781C662.198 567.781 660.57 567.43 659.086 566.727C657.602 566.023 656.417 564.852 655.531 563.211C654.672 561.544 654.242 559.305 654.242 556.492V514.461ZM702.758 559.773V538.016C702.758 536.349 702.419 534.904 701.742 533.68C701.091 532.43 700.102 531.466 698.773 530.789C697.445 530.112 695.805 529.773 693.852 529.773C692.029 529.773 690.427 530.086 689.047 530.711C687.693 531.336 686.625 532.156 685.844 533.172C685.089 534.188 684.711 535.281 684.711 536.453H677.484C677.484 534.943 677.875 533.445 678.656 531.961C679.438 530.477 680.557 529.135 682.016 527.938C683.5 526.714 685.271 525.75 687.328 525.047C689.411 524.318 691.729 523.953 694.281 523.953C697.354 523.953 700.062 524.474 702.406 525.516C704.776 526.557 706.625 528.133 707.953 530.242C709.307 532.326 709.984 534.943 709.984 538.094V557.781C709.984 559.188 710.102 560.685 710.336 562.273C710.596 563.862 710.974 565.229 711.469 566.375V567H703.93C703.565 566.167 703.279 565.06 703.07 563.68C702.862 562.273 702.758 560.971 702.758 559.773ZM704.008 541.375L704.086 546.453H696.781C694.724 546.453 692.888 546.622 691.273 546.961C689.659 547.273 688.305 547.755 687.211 548.406C686.117 549.057 685.284 549.878 684.711 550.867C684.138 551.831 683.852 552.964 683.852 554.266C683.852 555.594 684.151 556.805 684.75 557.898C685.349 558.992 686.247 559.865 687.445 560.516C688.669 561.141 690.167 561.453 691.938 561.453C694.151 561.453 696.104 560.984 697.797 560.047C699.49 559.109 700.831 557.964 701.82 556.609C702.836 555.255 703.383 553.94 703.461 552.664L706.547 556.141C706.365 557.234 705.87 558.445 705.062 559.773C704.255 561.102 703.174 562.378 701.82 563.602C700.492 564.799 698.904 565.802 697.055 566.609C695.232 567.391 693.174 567.781 690.883 567.781C688.018 567.781 685.505 567.221 683.344 566.102C681.208 564.982 679.542 563.484 678.344 561.609C677.172 559.708 676.586 557.586 676.586 555.242C676.586 552.977 677.029 550.984 677.914 549.266C678.799 547.521 680.076 546.076 681.742 544.93C683.409 543.758 685.414 542.872 687.758 542.273C690.102 541.674 692.719 541.375 695.609 541.375H704.008ZM728.617 507V567H721.352V507H728.617ZM754.438 524.734L736 544.461L725.688 555.164L725.102 547.469L732.484 538.641L745.609 524.734H754.438ZM747.836 567L732.758 546.844L736.508 540.398L756.352 567H747.836ZM778.656 567.781C775.714 567.781 773.044 567.286 770.648 566.297C768.279 565.281 766.234 563.862 764.516 562.039C762.823 560.216 761.521 558.055 760.609 555.555C759.698 553.055 759.242 550.32 759.242 547.352V545.711C759.242 542.273 759.75 539.214 760.766 536.531C761.781 533.823 763.161 531.531 764.906 529.656C766.651 527.781 768.63 526.362 770.844 525.398C773.057 524.435 775.349 523.953 777.719 523.953C780.74 523.953 783.344 524.474 785.531 525.516C787.745 526.557 789.555 528.016 790.961 529.891C792.367 531.74 793.409 533.927 794.086 536.453C794.763 538.953 795.102 541.688 795.102 544.656V547.898H763.539V542H787.875V541.453C787.771 539.578 787.38 537.755 786.703 535.984C786.052 534.214 785.01 532.755 783.578 531.609C782.146 530.464 780.193 529.891 777.719 529.891C776.078 529.891 774.568 530.242 773.188 530.945C771.807 531.622 770.622 532.638 769.633 533.992C768.643 535.346 767.875 537 767.328 538.953C766.781 540.906 766.508 543.159 766.508 545.711V547.352C766.508 549.357 766.781 551.245 767.328 553.016C767.901 554.76 768.721 556.297 769.789 557.625C770.883 558.953 772.198 559.995 773.734 560.75C775.297 561.505 777.068 561.883 779.047 561.883C781.599 561.883 783.76 561.362 785.531 560.32C787.302 559.279 788.852 557.885 790.18 556.141L794.555 559.617C793.643 560.997 792.484 562.312 791.078 563.562C789.672 564.812 787.94 565.828 785.883 566.609C783.852 567.391 781.443 567.781 778.656 567.781ZM848.305 559.773V538.016C848.305 536.349 847.966 534.904 847.289 533.68C846.638 532.43 845.648 531.466 844.32 530.789C842.992 530.112 841.352 529.773 839.398 529.773C837.576 529.773 835.974 530.086 834.594 530.711C833.24 531.336 832.172 532.156 831.391 533.172C830.635 534.188 830.258 535.281 830.258 536.453H823.031C823.031 534.943 823.422 533.445 824.203 531.961C824.984 530.477 826.104 529.135 827.562 527.938C829.047 526.714 830.818 525.75 832.875 525.047C834.958 524.318 837.276 523.953 839.828 523.953C842.901 523.953 845.609 524.474 847.953 525.516C850.323 526.557 852.172 528.133 853.5 530.242C854.854 532.326 855.531 534.943 855.531 538.094V557.781C855.531 559.188 855.648 560.685 855.883 562.273C856.143 563.862 856.521 565.229 857.016 566.375V567H849.477C849.112 566.167 848.826 565.06 848.617 563.68C848.409 562.273 848.305 560.971 848.305 559.773ZM849.555 541.375L849.633 546.453H842.328C840.271 546.453 838.435 546.622 836.82 546.961C835.206 547.273 833.852 547.755 832.758 548.406C831.664 549.057 830.831 549.878 830.258 550.867C829.685 551.831 829.398 552.964 829.398 554.266C829.398 555.594 829.698 556.805 830.297 557.898C830.896 558.992 831.794 559.865 832.992 560.516C834.216 561.141 835.714 561.453 837.484 561.453C839.698 561.453 841.651 560.984 843.344 560.047C845.036 559.109 846.378 557.964 847.367 556.609C848.383 555.255 848.93 553.94 849.008 552.664L852.094 556.141C851.911 557.234 851.417 558.445 850.609 559.773C849.802 561.102 848.721 562.378 847.367 563.602C846.039 564.799 844.451 565.802 842.602 566.609C840.779 567.391 838.721 567.781 836.43 567.781C833.565 567.781 831.052 567.221 828.891 566.102C826.755 564.982 825.089 563.484 823.891 561.609C822.719 559.708 822.133 557.586 822.133 555.242C822.133 552.977 822.576 550.984 823.461 549.266C824.346 547.521 825.622 546.076 827.289 544.93C828.956 543.758 830.961 542.872 833.305 542.273C835.648 541.674 838.266 541.375 841.156 541.375H849.555ZM894.594 507V567H887.328V507H894.594ZM914.047 524.734V567H906.781V524.734H914.047ZM906.234 513.523C906.234 512.352 906.586 511.362 907.289 510.555C908.018 509.747 909.086 509.344 910.492 509.344C911.872 509.344 912.927 509.747 913.656 510.555C914.411 511.362 914.789 512.352 914.789 513.523C914.789 514.643 914.411 515.607 913.656 516.414C912.927 517.195 911.872 517.586 910.492 517.586C909.086 517.586 908.018 517.195 907.289 516.414C906.586 515.607 906.234 514.643 906.234 513.523ZM943.344 524.734V530.281H920.492V524.734H943.344ZM928.227 514.461H935.453V556.531C935.453 557.964 935.674 559.044 936.117 559.773C936.56 560.503 937.133 560.984 937.836 561.219C938.539 561.453 939.294 561.57 940.102 561.57C940.701 561.57 941.326 561.518 941.977 561.414C942.654 561.284 943.161 561.18 943.5 561.102L943.539 567C942.966 567.182 942.211 567.352 941.273 567.508C940.362 567.69 939.255 567.781 937.953 567.781C936.182 567.781 934.555 567.43 933.07 566.727C931.586 566.023 930.401 564.852 929.516 563.211C928.656 561.544 928.227 559.305 928.227 556.492V514.461ZM969.516 524.734V530.281H946.664V524.734H969.516ZM954.398 514.461H961.625V556.531C961.625 557.964 961.846 559.044 962.289 559.773C962.732 560.503 963.305 560.984 964.008 561.219C964.711 561.453 965.466 561.57 966.273 561.57C966.872 561.57 967.497 561.518 968.148 561.414C968.826 561.284 969.333 561.18 969.672 561.102L969.711 567C969.138 567.182 968.383 567.352 967.445 567.508C966.534 567.69 965.427 567.781 964.125 567.781C962.354 567.781 960.727 567.43 959.242 566.727C957.758 566.023 956.573 564.852 955.688 563.211C954.828 561.544 954.398 559.305 954.398 556.492V514.461ZM985.844 507V567H978.578V507H985.844ZM1014.98 567.781C1012.04 567.781 1009.37 567.286 1006.98 566.297C1004.61 565.281 1002.56 563.862 1000.84 562.039C999.151 560.216 997.849 558.055 996.938 555.555C996.026 553.055 995.57 550.32 995.57 547.352V545.711C995.57 542.273 996.078 539.214 997.094 536.531C998.109 533.823 999.49 531.531 1001.23 529.656C1002.98 527.781 1004.96 526.362 1007.17 525.398C1009.39 524.435 1011.68 523.953 1014.05 523.953C1017.07 523.953 1019.67 524.474 1021.86 525.516C1024.07 526.557 1025.88 528.016 1027.29 529.891C1028.7 531.74 1029.74 533.927 1030.41 536.453C1031.09 538.953 1031.43 541.688 1031.43 544.656V547.898H999.867V542H1024.2V541.453C1024.1 539.578 1023.71 537.755 1023.03 535.984C1022.38 534.214 1021.34 532.755 1019.91 531.609C1018.47 530.464 1016.52 529.891 1014.05 529.891C1012.41 529.891 1010.9 530.242 1009.52 530.945C1008.14 531.622 1006.95 532.638 1005.96 533.992C1004.97 535.346 1004.2 537 1003.66 538.953C1003.11 540.906 1002.84 543.159 1002.84 545.711V547.352C1002.84 549.357 1003.11 551.245 1003.66 553.016C1004.23 554.76 1005.05 556.297 1006.12 557.625C1007.21 558.953 1008.53 559.995 1010.06 560.75C1011.62 561.505 1013.4 561.883 1015.38 561.883C1017.93 561.883 1020.09 561.362 1021.86 560.32C1023.63 559.279 1025.18 557.885 1026.51 556.141L1030.88 559.617C1029.97 560.997 1028.81 562.312 1027.41 563.562C1026 564.812 1024.27 565.828 1022.21 566.609C1020.18 567.391 1017.77 567.781 1014.98 567.781ZM1059.67 507H1066.94V558.797L1066.31 567H1059.67V507ZM1095.49 545.516V546.336C1095.49 549.409 1095.13 552.26 1094.4 554.891C1093.67 557.495 1092.6 559.76 1091.2 561.688C1089.79 563.615 1088.07 565.112 1086.04 566.18C1084.01 567.247 1081.68 567.781 1079.05 567.781C1076.36 567.781 1074.01 567.326 1071.98 566.414C1069.97 565.477 1068.28 564.135 1066.9 562.391C1065.52 560.646 1064.41 558.536 1063.58 556.062C1062.77 553.589 1062.21 550.802 1061.9 547.703V544.109C1062.21 540.984 1062.77 538.185 1063.58 535.711C1064.41 533.237 1065.52 531.128 1066.9 529.383C1068.28 527.612 1069.97 526.271 1071.98 525.359C1073.98 524.422 1076.31 523.953 1078.97 523.953C1081.62 523.953 1083.98 524.474 1086.04 525.516C1088.1 526.531 1089.82 527.99 1091.2 529.891C1092.6 531.792 1093.67 534.07 1094.4 536.727C1095.13 539.357 1095.49 542.286 1095.49 545.516ZM1088.23 546.336V545.516C1088.23 543.406 1088.03 541.427 1087.64 539.578C1087.25 537.703 1086.62 536.062 1085.77 534.656C1084.91 533.224 1083.77 532.104 1082.37 531.297C1080.96 530.464 1079.23 530.047 1077.17 530.047C1075.35 530.047 1073.76 530.359 1072.41 530.984C1071.08 531.609 1069.95 532.456 1069.01 533.523C1068.07 534.565 1067.3 535.763 1066.7 537.117C1066.13 538.445 1065.7 539.826 1065.41 541.258V550.672C1065.83 552.495 1066.51 554.253 1067.45 555.945C1068.41 557.612 1069.68 558.979 1071.27 560.047C1072.89 561.115 1074.88 561.648 1077.25 561.648C1079.2 561.648 1080.87 561.258 1082.25 560.477C1083.66 559.669 1084.79 558.562 1085.65 557.156C1086.53 555.75 1087.18 554.122 1087.6 552.273C1088.02 550.424 1088.23 548.445 1088.23 546.336ZM1112.48 524.734V567H1105.22V524.734H1112.48ZM1104.67 513.523C1104.67 512.352 1105.02 511.362 1105.73 510.555C1106.46 509.747 1107.52 509.344 1108.93 509.344C1110.31 509.344 1111.36 509.747 1112.09 510.555C1112.85 511.362 1113.23 512.352 1113.23 513.523C1113.23 514.643 1112.85 515.607 1112.09 516.414C1111.36 517.195 1110.31 517.586 1108.93 517.586C1107.52 517.586 1106.46 517.195 1105.73 516.414C1105.02 515.607 1104.67 514.643 1104.67 513.523ZM1141.78 524.734V530.281H1118.93V524.734H1141.78ZM1126.66 514.461H1133.89V556.531C1133.89 557.964 1134.11 559.044 1134.55 559.773C1135 560.503 1135.57 560.984 1136.27 561.219C1136.98 561.453 1137.73 561.57 1138.54 561.57C1139.14 561.57 1139.76 561.518 1140.41 561.414C1141.09 561.284 1141.6 561.18 1141.94 561.102L1141.98 567C1141.4 567.182 1140.65 567.352 1139.71 567.508C1138.8 567.69 1137.69 567.781 1136.39 567.781C1134.62 567.781 1132.99 567.43 1131.51 566.727C1130.02 566.023 1128.84 564.852 1127.95 563.211C1127.09 561.544 1126.66 559.305 1126.66 556.492V514.461ZM1168.19 546.336V545.438C1168.19 542.391 1168.63 539.565 1169.52 536.961C1170.4 534.331 1171.68 532.052 1173.34 530.125C1175.01 528.172 1177.03 526.661 1179.4 525.594C1181.77 524.5 1184.42 523.953 1187.37 523.953C1190.34 523.953 1193.01 524.5 1195.38 525.594C1197.77 526.661 1199.8 528.172 1201.47 530.125C1203.16 532.052 1204.45 534.331 1205.34 536.961C1206.22 539.565 1206.66 542.391 1206.66 545.438V546.336C1206.66 549.383 1206.22 552.208 1205.34 554.812C1204.45 557.417 1203.16 559.695 1201.47 561.648C1199.8 563.576 1197.78 565.086 1195.41 566.18C1193.07 567.247 1190.41 567.781 1187.45 567.781C1184.48 567.781 1181.81 567.247 1179.44 566.18C1177.07 565.086 1175.04 563.576 1173.34 561.648C1171.68 559.695 1170.4 557.417 1169.52 554.812C1168.63 552.208 1168.19 549.383 1168.19 546.336ZM1175.41 545.438V546.336C1175.41 548.445 1175.66 550.438 1176.16 552.312C1176.65 554.161 1177.39 555.802 1178.38 557.234C1179.4 558.667 1180.66 559.799 1182.17 560.633C1183.68 561.44 1185.44 561.844 1187.45 561.844C1189.42 561.844 1191.16 561.44 1192.64 560.633C1194.15 559.799 1195.4 558.667 1196.39 557.234C1197.38 555.802 1198.12 554.161 1198.62 552.312C1199.14 550.438 1199.4 548.445 1199.4 546.336V545.438C1199.4 543.354 1199.14 541.388 1198.62 539.539C1198.12 537.664 1197.37 536.01 1196.35 534.578C1195.36 533.12 1194.11 531.974 1192.6 531.141C1191.12 530.307 1189.37 529.891 1187.37 529.891C1185.39 529.891 1183.64 530.307 1182.13 531.141C1180.65 531.974 1179.4 533.12 1178.38 534.578C1177.39 536.01 1176.65 537.664 1176.16 539.539C1175.66 541.388 1175.41 543.354 1175.41 545.438ZM1226.51 567H1219.28V520.281C1219.28 517.234 1219.83 514.669 1220.92 512.586C1222.04 510.477 1223.64 508.888 1225.73 507.82C1227.81 506.727 1230.28 506.18 1233.15 506.18C1233.98 506.18 1234.82 506.232 1235.65 506.336C1236.51 506.44 1237.34 506.596 1238.15 506.805L1237.76 512.703C1237.21 512.573 1236.59 512.482 1235.88 512.43C1235.21 512.378 1234.53 512.352 1233.85 512.352C1232.32 512.352 1230.99 512.664 1229.87 513.289C1228.77 513.888 1227.94 514.773 1227.37 515.945C1226.79 517.117 1226.51 518.562 1226.51 520.281V567ZM1235.49 524.734V530.281H1212.6V524.734H1235.49ZM1281.08 524.734V530.281H1258.23V524.734H1281.08ZM1265.96 514.461H1273.19V556.531C1273.19 557.964 1273.41 559.044 1273.85 559.773C1274.29 560.503 1274.87 560.984 1275.57 561.219C1276.27 561.453 1277.03 561.57 1277.84 561.57C1278.43 561.57 1279.06 561.518 1279.71 561.414C1280.39 561.284 1280.9 561.18 1281.23 561.102L1281.27 567C1280.7 567.182 1279.95 567.352 1279.01 567.508C1278.1 567.69 1276.99 567.781 1275.69 567.781C1273.92 567.781 1272.29 567.43 1270.8 566.727C1269.32 566.023 1268.14 564.852 1267.25 563.211C1266.39 561.544 1265.96 559.305 1265.96 556.492V514.461ZM1297.41 524.734V567H1290.14V524.734H1297.41ZM1289.59 513.523C1289.59 512.352 1289.95 511.362 1290.65 510.555C1291.38 509.747 1292.45 509.344 1293.85 509.344C1295.23 509.344 1296.29 509.747 1297.02 510.555C1297.77 511.362 1298.15 512.352 1298.15 513.523C1298.15 514.643 1297.77 515.607 1297.02 516.414C1296.29 517.195 1295.23 517.586 1293.85 517.586C1292.45 517.586 1291.38 517.195 1290.65 516.414C1289.95 515.607 1289.59 514.643 1289.59 513.523ZM1316.2 533.133V567H1308.93V524.734H1315.8L1316.2 533.133ZM1314.71 544.266L1311.35 544.148C1311.38 541.258 1311.76 538.589 1312.48 536.141C1313.21 533.667 1314.29 531.518 1315.73 529.695C1317.16 527.872 1318.94 526.466 1321.08 525.477C1323.21 524.461 1325.69 523.953 1328.5 523.953C1330.48 523.953 1332.3 524.24 1333.97 524.812C1335.64 525.359 1337.08 526.232 1338.3 527.43C1339.53 528.628 1340.48 530.164 1341.16 532.039C1341.83 533.914 1342.17 536.18 1342.17 538.836V567H1334.95V539.188C1334.95 536.974 1334.57 535.203 1333.81 533.875C1333.08 532.547 1332.04 531.583 1330.69 530.984C1329.33 530.359 1327.74 530.047 1325.92 530.047C1323.79 530.047 1322 530.424 1320.57 531.18C1319.14 531.935 1317.99 532.977 1317.13 534.305C1316.27 535.633 1315.65 537.156 1315.26 538.875C1314.89 540.568 1314.71 542.365 1314.71 544.266ZM1342.09 540.281L1337.25 541.766C1337.28 539.448 1337.65 537.221 1338.38 535.086C1339.14 532.951 1340.22 531.049 1341.62 529.383C1343.06 527.716 1344.82 526.401 1346.9 525.438C1348.98 524.448 1351.36 523.953 1354.05 523.953C1356.31 523.953 1358.32 524.253 1360.06 524.852C1361.83 525.451 1363.32 526.375 1364.52 527.625C1365.74 528.849 1366.66 530.424 1367.29 532.352C1367.91 534.279 1368.23 536.57 1368.23 539.227V567H1360.96V539.148C1360.96 536.779 1360.58 534.943 1359.83 533.641C1359.1 532.312 1358.06 531.388 1356.7 530.867C1355.38 530.32 1353.79 530.047 1351.94 530.047C1350.35 530.047 1348.94 530.32 1347.72 530.867C1346.49 531.414 1345.47 532.169 1344.63 533.133C1343.8 534.07 1343.16 535.151 1342.72 536.375C1342.3 537.599 1342.09 538.901 1342.09 540.281ZM1396.7 567.781C1393.76 567.781 1391.09 567.286 1388.7 566.297C1386.33 565.281 1384.28 563.862 1382.56 562.039C1380.87 560.216 1379.57 558.055 1378.66 555.555C1377.74 553.055 1377.29 550.32 1377.29 547.352V545.711C1377.29 542.273 1377.8 539.214 1378.81 536.531C1379.83 533.823 1381.21 531.531 1382.95 529.656C1384.7 527.781 1386.68 526.362 1388.89 525.398C1391.1 524.435 1393.4 523.953 1395.77 523.953C1398.79 523.953 1401.39 524.474 1403.58 525.516C1405.79 526.557 1407.6 528.016 1409.01 529.891C1410.41 531.74 1411.46 533.927 1412.13 536.453C1412.81 538.953 1413.15 541.688 1413.15 544.656V547.898H1381.59V542H1405.92V541.453C1405.82 539.578 1405.43 537.755 1404.75 535.984C1404.1 534.214 1403.06 532.755 1401.62 531.609C1400.19 530.464 1398.24 529.891 1395.77 529.891C1394.12 529.891 1392.61 530.242 1391.23 530.945C1389.85 531.622 1388.67 532.638 1387.68 533.992C1386.69 535.346 1385.92 537 1385.38 538.953C1384.83 540.906 1384.55 543.159 1384.55 545.711V547.352C1384.55 549.357 1384.83 551.245 1385.38 553.016C1385.95 554.76 1386.77 556.297 1387.84 557.625C1388.93 558.953 1390.24 559.995 1391.78 560.75C1393.34 561.505 1395.11 561.883 1397.09 561.883C1399.65 561.883 1401.81 561.362 1403.58 560.32C1405.35 559.279 1406.9 557.885 1408.23 556.141L1412.6 559.617C1411.69 560.997 1410.53 562.312 1409.12 563.562C1407.72 564.812 1405.99 565.828 1403.93 566.609C1401.9 567.391 1399.49 567.781 1396.7 567.781ZM1459.12 524.734V530.281H1436.27V524.734H1459.12ZM1444.01 514.461H1451.23V556.531C1451.23 557.964 1451.46 559.044 1451.9 559.773C1452.34 560.503 1452.91 560.984 1453.62 561.219C1454.32 561.453 1455.08 561.57 1455.88 561.57C1456.48 561.57 1457.11 561.518 1457.76 561.414C1458.43 561.284 1458.94 561.18 1459.28 561.102L1459.32 567C1458.75 567.182 1457.99 567.352 1457.05 567.508C1456.14 567.69 1455.04 567.781 1453.73 567.781C1451.96 567.781 1450.34 567.43 1448.85 566.727C1447.37 566.023 1446.18 564.852 1445.3 563.211C1444.44 561.544 1444.01 559.305 1444.01 556.492V514.461ZM1464.91 546.336V545.438C1464.91 542.391 1465.35 539.565 1466.23 536.961C1467.12 534.331 1468.4 532.052 1470.06 530.125C1471.73 528.172 1473.75 526.661 1476.12 525.594C1478.49 524.5 1481.14 523.953 1484.09 523.953C1487.05 523.953 1489.72 524.5 1492.09 525.594C1494.49 526.661 1496.52 528.172 1498.19 530.125C1499.88 532.052 1501.17 534.331 1502.05 536.961C1502.94 539.565 1503.38 542.391 1503.38 545.438V546.336C1503.38 549.383 1502.94 552.208 1502.05 554.812C1501.17 557.417 1499.88 559.695 1498.19 561.648C1496.52 563.576 1494.5 565.086 1492.13 566.18C1489.79 567.247 1487.13 567.781 1484.16 567.781C1481.2 567.781 1478.53 567.247 1476.16 566.18C1473.79 565.086 1471.76 563.576 1470.06 561.648C1468.4 559.695 1467.12 557.417 1466.23 554.812C1465.35 552.208 1464.91 549.383 1464.91 546.336ZM1472.13 545.438V546.336C1472.13 548.445 1472.38 550.438 1472.88 552.312C1473.37 554.161 1474.11 555.802 1475.1 557.234C1476.12 558.667 1477.38 559.799 1478.89 560.633C1480.4 561.44 1482.16 561.844 1484.16 561.844C1486.14 561.844 1487.88 561.44 1489.36 560.633C1490.87 559.799 1492.12 558.667 1493.11 557.234C1494.1 555.802 1494.84 554.161 1495.34 552.312C1495.86 550.438 1496.12 548.445 1496.12 546.336V545.438C1496.12 543.354 1495.86 541.388 1495.34 539.539C1494.84 537.664 1494.09 536.01 1493.07 534.578C1492.08 533.12 1490.83 531.974 1489.32 531.141C1487.84 530.307 1486.09 529.891 1484.09 529.891C1482.11 529.891 1480.36 530.307 1478.85 531.141C1477.37 531.974 1476.12 533.12 1475.1 534.578C1474.11 536.01 1473.37 537.664 1472.88 539.539C1472.38 541.388 1472.13 543.354 1472.13 545.438ZM1559.67 524.734H1566.23V566.102C1566.23 569.826 1565.48 573.003 1563.97 575.633C1562.46 578.263 1560.35 580.255 1557.64 581.609C1554.96 582.99 1551.86 583.68 1548.34 583.68C1546.89 583.68 1545.17 583.445 1543.19 582.977C1541.23 582.534 1539.31 581.766 1537.41 580.672C1535.53 579.604 1533.96 578.159 1532.68 576.336L1536.47 572.039C1538.24 574.174 1540.09 575.659 1542.02 576.492C1543.97 577.326 1545.9 577.742 1547.8 577.742C1550.09 577.742 1552.07 577.312 1553.73 576.453C1555.4 575.594 1556.69 574.318 1557.6 572.625C1558.54 570.958 1559.01 568.901 1559.01 566.453V534.031L1559.67 524.734ZM1530.57 546.336V545.516C1530.57 542.286 1530.95 539.357 1531.7 536.727C1532.48 534.07 1533.59 531.792 1535.02 529.891C1536.48 527.99 1538.24 526.531 1540.3 525.516C1542.35 524.474 1544.67 523.953 1547.25 523.953C1549.91 523.953 1552.22 524.422 1554.2 525.359C1556.21 526.271 1557.9 527.612 1559.28 529.383C1560.69 531.128 1561.79 533.237 1562.6 535.711C1563.41 538.185 1563.97 540.984 1564.28 544.109V547.703C1563.99 550.802 1563.43 553.589 1562.6 556.062C1561.79 558.536 1560.69 560.646 1559.28 562.391C1557.9 564.135 1556.21 565.477 1554.2 566.414C1552.2 567.326 1549.85 567.781 1547.17 567.781C1544.65 567.781 1542.35 567.247 1540.3 566.18C1538.27 565.112 1536.52 563.615 1535.06 561.688C1533.6 559.76 1532.48 557.495 1531.7 554.891C1530.95 552.26 1530.57 549.409 1530.57 546.336ZM1537.8 545.516V546.336C1537.8 548.445 1538.01 550.424 1538.42 552.273C1538.86 554.122 1539.53 555.75 1540.41 557.156C1541.33 558.562 1542.48 559.669 1543.89 560.477C1545.3 561.258 1546.98 561.648 1548.93 561.648C1551.33 561.648 1553.3 561.141 1554.87 560.125C1556.43 559.109 1557.67 557.768 1558.58 556.102C1559.52 554.435 1560.24 552.625 1560.77 550.672V541.258C1560.48 539.826 1560.04 538.445 1559.44 537.117C1558.86 535.763 1558.11 534.565 1557.17 533.523C1556.26 532.456 1555.13 531.609 1553.77 530.984C1552.42 530.359 1550.83 530.047 1549.01 530.047C1547.03 530.047 1545.32 530.464 1543.89 531.297C1542.48 532.104 1541.33 533.224 1540.41 534.656C1539.53 536.062 1538.86 537.703 1538.42 539.578C1538.01 541.427 1537.8 543.406 1537.8 545.516ZM1594.75 567.781C1591.81 567.781 1589.14 567.286 1586.74 566.297C1584.37 565.281 1582.33 563.862 1580.61 562.039C1578.92 560.216 1577.61 558.055 1576.7 555.555C1575.79 553.055 1575.34 550.32 1575.34 547.352V545.711C1575.34 542.273 1575.84 539.214 1576.86 536.531C1577.88 533.823 1579.26 531.531 1581 529.656C1582.74 527.781 1584.72 526.362 1586.94 525.398C1589.15 524.435 1591.44 523.953 1593.81 523.953C1596.83 523.953 1599.44 524.474 1601.62 525.516C1603.84 526.557 1605.65 528.016 1607.05 529.891C1608.46 531.74 1609.5 533.927 1610.18 536.453C1610.86 538.953 1611.2 541.688 1611.2 544.656V547.898H1579.63V542H1603.97V541.453C1603.86 539.578 1603.47 537.755 1602.8 535.984C1602.15 534.214 1601.1 532.755 1599.67 531.609C1598.24 530.464 1596.29 529.891 1593.81 529.891C1592.17 529.891 1590.66 530.242 1589.28 530.945C1587.9 531.622 1586.72 532.638 1585.73 533.992C1584.74 535.346 1583.97 537 1583.42 538.953C1582.88 540.906 1582.6 543.159 1582.6 545.711V547.352C1582.6 549.357 1582.88 551.245 1583.42 553.016C1583.99 554.76 1584.82 556.297 1585.88 557.625C1586.98 558.953 1588.29 559.995 1589.83 560.75C1591.39 561.505 1593.16 561.883 1595.14 561.883C1597.69 561.883 1599.85 561.362 1601.62 560.32C1603.4 559.279 1604.95 557.885 1606.27 556.141L1610.65 559.617C1609.74 560.997 1608.58 562.312 1607.17 563.562C1605.77 564.812 1604.03 565.828 1601.98 566.609C1599.95 567.391 1597.54 567.781 1594.75 567.781ZM1626.86 533.758V567H1619.63V524.734H1626.47L1626.86 533.758ZM1625.14 544.266L1622.13 544.148C1622.16 541.258 1622.59 538.589 1623.42 536.141C1624.26 533.667 1625.43 531.518 1626.94 529.695C1628.45 527.872 1630.24 526.466 1632.33 525.477C1634.44 524.461 1636.77 523.953 1639.32 523.953C1641.4 523.953 1643.28 524.24 1644.95 524.812C1646.61 525.359 1648.03 526.245 1649.2 527.469C1650.4 528.693 1651.31 530.281 1651.94 532.234C1652.56 534.161 1652.88 536.518 1652.88 539.305V567H1645.61V539.227C1645.61 537.013 1645.28 535.242 1644.63 533.914C1643.98 532.56 1643.03 531.583 1641.78 530.984C1640.53 530.359 1638.99 530.047 1637.17 530.047C1635.38 530.047 1633.73 530.424 1632.25 531.18C1630.79 531.935 1629.53 532.977 1628.46 534.305C1627.42 535.633 1626.6 537.156 1626 538.875C1625.43 540.568 1625.14 542.365 1625.14 544.266ZM1681.39 567.781C1678.45 567.781 1675.78 567.286 1673.38 566.297C1671.01 565.281 1668.97 563.862 1667.25 562.039C1665.56 560.216 1664.26 558.055 1663.34 555.555C1662.43 553.055 1661.98 550.32 1661.98 547.352V545.711C1661.98 542.273 1662.48 539.214 1663.5 536.531C1664.52 533.823 1665.9 531.531 1667.64 529.656C1669.39 527.781 1671.36 526.362 1673.58 525.398C1675.79 524.435 1678.08 523.953 1680.45 523.953C1683.47 523.953 1686.08 524.474 1688.27 525.516C1690.48 526.557 1692.29 528.016 1693.7 529.891C1695.1 531.74 1696.14 533.927 1696.82 536.453C1697.5 538.953 1697.84 541.688 1697.84 544.656V547.898H1666.27V542H1690.61V541.453C1690.51 539.578 1690.11 537.755 1689.44 535.984C1688.79 534.214 1687.74 532.755 1686.31 531.609C1684.88 530.464 1682.93 529.891 1680.45 529.891C1678.81 529.891 1677.3 530.242 1675.92 530.945C1674.54 531.622 1673.36 532.638 1672.37 533.992C1671.38 535.346 1670.61 537 1670.06 538.953C1669.52 540.906 1669.24 543.159 1669.24 545.711V547.352C1669.24 549.357 1669.52 551.245 1670.06 553.016C1670.64 554.76 1671.46 556.297 1672.52 557.625C1673.62 558.953 1674.93 559.995 1676.47 560.75C1678.03 561.505 1679.8 561.883 1681.78 561.883C1684.33 561.883 1686.49 561.362 1688.27 560.32C1690.04 559.279 1691.59 557.885 1692.91 556.141L1697.29 559.617C1696.38 560.997 1695.22 562.312 1693.81 563.562C1692.41 564.812 1690.67 565.828 1688.62 566.609C1686.59 567.391 1684.18 567.781 1681.39 567.781ZM1713.5 531.375V567H1706.27V524.734H1713.3L1713.5 531.375ZM1726.7 524.5L1726.66 531.219C1726.07 531.089 1725.49 531.01 1724.95 530.984C1724.42 530.932 1723.83 530.906 1723.15 530.906C1721.48 530.906 1720.01 531.167 1718.73 531.688C1717.46 532.208 1716.38 532.938 1715.49 533.875C1714.61 534.812 1713.9 535.932 1713.38 537.234C1712.89 538.51 1712.56 539.917 1712.41 541.453L1710.38 542.625C1710.38 540.073 1710.62 537.677 1711.12 535.438C1711.64 533.198 1712.43 531.219 1713.5 529.5C1714.57 527.755 1715.92 526.401 1717.56 525.438C1719.23 524.448 1721.21 523.953 1723.5 523.953C1724.02 523.953 1724.62 524.018 1725.3 524.148C1725.97 524.253 1726.44 524.37 1726.7 524.5ZM1756.74 559.773V538.016C1756.74 536.349 1756.4 534.904 1755.73 533.68C1755.08 532.43 1754.09 531.466 1752.76 530.789C1751.43 530.112 1749.79 529.773 1747.84 529.773C1746.01 529.773 1744.41 530.086 1743.03 530.711C1741.68 531.336 1740.61 532.156 1739.83 533.172C1739.07 534.188 1738.7 535.281 1738.7 536.453H1731.47C1731.47 534.943 1731.86 533.445 1732.64 531.961C1733.42 530.477 1734.54 529.135 1736 527.938C1737.48 526.714 1739.26 525.75 1741.31 525.047C1743.4 524.318 1745.71 523.953 1748.27 523.953C1751.34 523.953 1754.05 524.474 1756.39 525.516C1758.76 526.557 1760.61 528.133 1761.94 530.242C1763.29 532.326 1763.97 534.943 1763.97 538.094V557.781C1763.97 559.188 1764.09 560.685 1764.32 562.273C1764.58 563.862 1764.96 565.229 1765.45 566.375V567H1757.91C1757.55 566.167 1757.26 565.06 1757.05 563.68C1756.85 562.273 1756.74 560.971 1756.74 559.773ZM1757.99 541.375L1758.07 546.453H1750.77C1748.71 546.453 1746.87 546.622 1745.26 546.961C1743.64 547.273 1742.29 547.755 1741.2 548.406C1740.1 549.057 1739.27 549.878 1738.7 550.867C1738.12 551.831 1737.84 552.964 1737.84 554.266C1737.84 555.594 1738.14 556.805 1738.73 557.898C1739.33 558.992 1740.23 559.865 1741.43 560.516C1742.65 561.141 1744.15 561.453 1745.92 561.453C1748.14 561.453 1750.09 560.984 1751.78 560.047C1753.47 559.109 1754.82 557.964 1755.8 556.609C1756.82 555.255 1757.37 553.94 1757.45 552.664L1760.53 556.141C1760.35 557.234 1759.85 558.445 1759.05 559.773C1758.24 561.102 1757.16 562.378 1755.8 563.602C1754.48 564.799 1752.89 565.802 1751.04 566.609C1749.22 567.391 1747.16 567.781 1744.87 567.781C1742 567.781 1739.49 567.221 1737.33 566.102C1735.19 564.982 1733.53 563.484 1732.33 561.609C1731.16 559.708 1730.57 557.586 1730.57 555.242C1730.57 552.977 1731.01 550.984 1731.9 549.266C1732.78 547.521 1734.06 546.076 1735.73 544.93C1737.39 543.758 1739.4 542.872 1741.74 542.273C1744.09 541.674 1746.7 541.375 1749.59 541.375H1757.99ZM1793.03 524.734V530.281H1770.18V524.734H1793.03ZM1777.91 514.461H1785.14V556.531C1785.14 557.964 1785.36 559.044 1785.8 559.773C1786.25 560.503 1786.82 560.984 1787.52 561.219C1788.23 561.453 1788.98 561.57 1789.79 561.57C1790.39 561.57 1791.01 561.518 1791.66 561.414C1792.34 561.284 1792.85 561.18 1793.19 561.102L1793.23 567C1792.65 567.182 1791.9 567.352 1790.96 567.508C1790.05 567.69 1788.94 567.781 1787.64 567.781C1785.87 567.781 1784.24 567.43 1782.76 566.727C1781.27 566.023 1780.09 564.852 1779.2 563.211C1778.34 561.544 1777.91 559.305 1777.91 556.492V514.461ZM1819.05 567.781C1816.1 567.781 1813.43 567.286 1811.04 566.297C1808.67 565.281 1806.62 563.862 1804.91 562.039C1803.21 560.216 1801.91 558.055 1801 555.555C1800.09 553.055 1799.63 550.32 1799.63 547.352V545.711C1799.63 542.273 1800.14 539.214 1801.16 536.531C1802.17 533.823 1803.55 531.531 1805.3 529.656C1807.04 527.781 1809.02 526.362 1811.23 525.398C1813.45 524.435 1815.74 523.953 1818.11 523.953C1821.13 523.953 1823.73 524.474 1825.92 525.516C1828.14 526.557 1829.95 528.016 1831.35 529.891C1832.76 531.74 1833.8 533.927 1834.48 536.453C1835.15 538.953 1835.49 541.688 1835.49 544.656V547.898H1803.93V542H1828.27V541.453C1828.16 539.578 1827.77 537.755 1827.09 535.984C1826.44 534.214 1825.4 532.755 1823.97 531.609C1822.54 530.464 1820.58 529.891 1818.11 529.891C1816.47 529.891 1814.96 530.242 1813.58 530.945C1812.2 531.622 1811.01 532.638 1810.02 533.992C1809.03 535.346 1808.27 537 1807.72 538.953C1807.17 540.906 1806.9 543.159 1806.9 545.711V547.352C1806.9 549.357 1807.17 551.245 1807.72 553.016C1808.29 554.76 1809.11 556.297 1810.18 557.625C1811.27 558.953 1812.59 559.995 1814.12 560.75C1815.69 561.505 1817.46 561.883 1819.44 561.883C1821.99 561.883 1824.15 561.362 1825.92 560.32C1827.69 559.279 1829.24 557.885 1830.57 556.141L1834.95 559.617C1834.03 560.997 1832.88 562.312 1831.47 563.562C1830.06 564.812 1828.33 565.828 1826.27 566.609C1824.24 567.391 1821.83 567.781 1819.05 567.781Z" fill="white"/>
</svg>
